<svg width="114" height="34" viewBox="0 0 114 34" fill="none" xmlns="http://www.w3.org/2000/svg">
<g clip-path="url(#clip0_4865_3214)">
<path d="M96.7361 0.828125H16.4906C7.38309 0.828125 0 8.2539 0 17.4141C0 26.5742 7.38309 34 16.4906 34H96.7361C105.844 34 113.227 26.5742 113.227 17.4141C113.227 8.2539 105.844 0.828125 96.7361 0.828125Z" fill="url(#paint0_linear_4865_3214)"/>
<path d="M44.1862 13.9113C43.9498 13.6657 43.6486 13.543 43.2902 13.543C42.9318 13.543 42.6306 13.6657 42.3943 13.9113C42.1579 14.1542 42.0385 14.4598 42.0385 14.8202V19.5949C42.0385 20.321 41.8801 20.8643 41.5684 21.2065C41.2594 21.546 40.7764 21.7184 40.1323 21.7184C39.4883 21.7184 39.0234 21.546 38.7144 21.2065C38.4028 20.8643 38.2444 20.321 38.2444 19.5949V14.8202C38.2444 14.4598 38.1249 14.1542 37.8912 13.9113C37.6548 13.6657 37.3536 13.543 36.9952 13.543C36.6368 13.543 36.3356 13.6657 36.0993 13.9113C35.863 14.1542 35.7461 14.4598 35.7461 14.8202V19.5949C35.7461 20.9766 36.1304 22.0762 36.8862 22.8624C37.6419 23.6486 38.7378 24.0483 40.1375 24.0483C41.5373 24.0483 42.6358 23.6486 43.3967 22.8624C44.1576 22.0762 44.5445 20.9766 44.5445 19.5949V14.8202C44.5445 14.4598 44.4251 14.1542 44.1888 13.9113H44.1862Z" fill="white"/>
<path d="M47.8297 10.085C47.3856 10.085 47.0688 10.1607 46.8558 10.3174C46.6351 10.4794 46.5234 10.7615 46.5234 11.1559V11.5137C46.5234 11.9055 46.6273 12.1876 46.8351 12.3495C47.035 12.5062 47.3545 12.5846 47.8115 12.5846C48.2686 12.5846 48.6062 12.5115 48.8113 12.3626C49.0269 12.2059 49.136 11.9212 49.136 11.5137V11.1559C49.136 10.7641 49.0321 10.4846 48.8243 10.32C48.6244 10.1633 48.2971 10.085 47.8297 10.085Z" fill="white"/>
<path d="M47.8312 13.543C47.4728 13.543 47.1715 13.6657 46.9352 13.9113C46.6989 14.1542 46.582 14.4598 46.582 14.8202V22.583C46.582 22.9434 46.7015 23.249 46.9352 23.4919C47.1715 23.7374 47.4728 23.8602 47.8312 23.8602C48.1895 23.8602 48.4908 23.7374 48.7271 23.4919C48.9634 23.249 49.0803 22.9434 49.0803 22.583V14.8202C49.0803 14.4598 48.9608 14.1542 48.7271 13.9113C48.4908 13.6657 48.1895 13.543 47.8312 13.543Z" fill="white"/>
<path d="M60.462 20.9483C60.2699 20.9483 60.0517 21.0031 59.805 21.1128C59.2648 21.3897 58.6182 21.5307 57.8833 21.5307C56.6393 21.5307 55.6239 21.1572 54.863 20.4207C54.1021 19.6867 53.7152 18.5871 53.7152 17.1505C53.7152 16.3121 53.8866 15.5572 54.2242 14.9094C54.5592 14.2643 55.0448 13.7576 55.6681 13.4023C56.2939 13.0445 57.0393 12.8643 57.8833 12.8643C58.5715 12.8643 59.2181 13.0053 59.8024 13.2822C60.0309 13.4049 60.2673 13.4676 60.4984 13.4676C60.8516 13.4676 61.1424 13.3187 61.3684 13.021C61.5709 12.7493 61.6748 12.462 61.6748 12.1721C61.6748 11.6837 61.4567 11.3206 61.0256 11.0986C60.0647 10.6023 59.0077 10.3516 57.8833 10.3516C56.5848 10.3516 55.4006 10.6441 54.3644 11.224C53.3256 11.8038 52.5024 12.6187 51.9129 13.6505C51.326 14.6796 51.0273 15.8602 51.0273 17.1557C51.0273 18.6132 51.3416 19.8774 51.9622 20.9065C52.5829 21.9382 53.4243 22.7296 54.4631 23.2573C55.4967 23.7849 56.6497 24.0513 57.8859 24.0513C58.9974 24.0513 60.0595 23.8005 61.0437 23.3069C61.2541 23.2076 61.4151 23.0666 61.5294 22.8811C61.641 22.6983 61.6982 22.4919 61.6982 22.2673C61.6982 21.9617 61.5943 21.677 61.3891 21.4132C61.1398 21.1076 60.8308 20.9509 60.4672 20.9509L60.462 20.9483Z" fill="white"/>
<path d="M69.5585 13.705C69.2806 13.4725 68.9352 13.355 68.5327 13.355C67.9043 13.355 67.307 13.496 66.7564 13.7729C66.3305 13.9871 65.9773 14.2796 65.7021 14.6427C65.6683 14.358 65.554 14.1124 65.3567 13.9113C65.1203 13.6658 64.8191 13.543 64.4607 13.543C64.1023 13.543 63.8011 13.6658 63.5648 13.9113C63.3284 14.1542 63.209 14.4598 63.209 14.8203V22.583C63.209 22.9435 63.3284 23.2491 63.5622 23.492C63.7985 23.7375 64.0997 23.8603 64.4581 23.8603C64.8165 23.8603 65.1177 23.7375 65.3541 23.492C65.5904 23.2491 65.7098 22.9435 65.7098 22.583V18.1296C65.7098 17.589 65.8033 17.1162 65.9877 16.7296C66.1695 16.3457 66.4032 16.0557 66.6811 15.8703C66.9564 15.6848 67.2472 15.5908 67.5433 15.5908C67.6809 15.5908 67.8108 15.6091 67.9276 15.6431C68.0575 15.6796 68.138 15.7057 68.1717 15.7162C68.8002 15.9513 69.2832 15.8886 69.652 15.5281C69.8779 15.3087 69.9896 14.9848 69.9896 14.5617C69.9896 14.2352 69.8442 13.9479 69.5585 13.7102V13.705Z" fill="white"/>
<path d="M78.9424 13.355C78.584 13.355 78.2827 13.4777 78.0464 13.7233C77.8698 13.9061 77.7582 14.1255 77.714 14.3841C77.3816 14.1124 76.9895 13.88 76.5454 13.6945C76.0078 13.4699 75.4261 13.355 74.8132 13.355C73.9588 13.355 73.1642 13.5874 72.4552 14.0419C71.7462 14.4964 71.1801 15.1416 70.775 15.9539C70.3699 16.7636 70.1621 17.6908 70.1621 18.7095C70.1621 19.7282 70.3725 20.6528 70.7828 21.4573C71.1957 22.2644 71.767 22.9043 72.4812 23.3588C73.1953 23.8159 74.0056 24.0457 74.8859 24.0457C75.4884 24.0457 76.0701 23.9125 76.6155 23.6487C77.057 23.4345 77.4309 23.1812 77.727 22.8912C77.7815 23.1263 77.8906 23.3301 78.0542 23.4998C78.2827 23.7375 78.5814 23.8603 78.9424 23.8603C79.3033 23.8603 79.602 23.7375 79.8383 23.492C80.0746 23.2491 80.1941 22.9435 80.1941 22.583V14.6322C80.1941 14.2587 80.0746 13.9505 79.8383 13.7128C79.602 13.4751 79.3007 13.355 78.9424 13.355ZM77.7841 18.7095C77.7841 19.5741 77.5374 20.3028 77.0492 20.8696C76.561 21.439 75.9429 21.7159 75.1664 21.7159C74.3899 21.7159 73.7771 21.439 73.294 20.8696C72.8136 20.3028 72.5695 19.5741 72.5695 18.7095C72.5695 17.8449 72.8162 17.1136 73.3044 16.539C73.7926 15.9617 74.4029 15.6822 75.169 15.6822C75.9351 15.6822 76.561 15.9617 77.0518 16.539C77.54 17.1136 77.7867 17.8449 77.7867 18.7095H77.7841Z" fill="white"/>
<path d="M88.5243 9.98819C88.1633 9.78968 87.7374 9.69043 87.257 9.69043C86.0208 9.69043 85.0574 9.99864 84.3951 10.6072C83.7277 11.2184 83.3901 12.0229 83.3901 12.9972V13.7311H82.5124C82.1799 13.7311 81.8969 13.8408 81.6735 14.0602C81.4502 14.2796 81.3359 14.5617 81.3359 14.8961C81.3359 15.2304 81.4502 15.5125 81.6735 15.7319C81.8969 15.9487 82.1799 16.061 82.5124 16.061H83.3901V22.5831C83.3901 22.9435 83.5096 23.2491 83.7459 23.492C83.9822 23.7375 84.2835 23.8603 84.6418 23.8603C85.0002 23.8603 85.3015 23.7375 85.5378 23.492C85.7741 23.2491 85.8936 22.9435 85.8936 22.5831V16.061H87.4647C87.7971 16.061 88.0802 15.9513 88.3035 15.7319C88.5295 15.5125 88.6411 15.2304 88.6411 14.8961C88.6411 14.5617 88.5269 14.2796 88.3035 14.0602C88.0802 13.8434 87.7971 13.7311 87.4647 13.7311H85.8936V12.9789C85.8936 12.7151 85.9715 12.48 86.1299 12.2554C86.2805 12.0464 86.5376 11.9446 86.922 11.9446C87.1089 11.9446 87.3505 11.9811 87.6465 12.0543L87.8595 12.0908C88.2386 12.1613 88.5606 12.0569 88.8099 11.7878C89.0073 11.5763 89.106 11.2994 89.106 10.9651C89.106 10.5263 88.9112 10.1971 88.5243 9.98558V9.98819Z" fill="white"/>
<path d="M95.7366 21.7734C95.5678 21.5748 95.373 21.473 95.1601 21.473C95.0068 21.473 94.8458 21.5069 94.6952 21.5722C94.5342 21.6192 94.407 21.6428 94.3187 21.6428C94.1161 21.6428 93.9551 21.5931 93.8434 21.4965C93.7369 21.4051 93.6824 21.2457 93.6824 21.0211V16.0584H94.8796C95.212 16.0584 95.4951 15.9487 95.7184 15.7293C95.9443 15.5099 96.056 15.2356 96.056 14.9117C96.056 14.5879 95.9417 14.2927 95.7184 14.0681C95.4951 13.8434 95.212 13.7285 94.8796 13.7285H93.6824V12.6576C93.6824 12.2998 93.5629 11.9942 93.3292 11.7487C93.0929 11.5031 92.7968 11.3804 92.4515 11.3804C92.1061 11.3804 91.7892 11.5031 91.5477 11.7487C91.3062 11.9942 91.1815 12.2972 91.1815 12.6576V13.7285H90.4518C90.1194 13.7285 89.8363 13.8382 89.613 14.0576C89.3871 14.277 89.2754 14.5513 89.2754 14.8752C89.2754 15.1991 89.3897 15.4942 89.613 15.7188C89.8363 15.9435 90.1194 16.0584 90.4518 16.0584H91.1815V21.1151C91.1815 22.2357 91.4698 22.9853 92.0359 23.3405C92.5839 23.6853 93.2643 23.8577 94.0564 23.8577C94.5394 23.8577 94.9809 23.7349 95.3678 23.4894C95.7729 23.2334 95.9807 22.9096 95.9807 22.523C95.9807 22.2174 95.8976 21.964 95.734 21.7707L95.7366 21.7734Z" fill="white"/>
<path d="M14.2441 17.5029C14.239 12.6264 18.1863 8.66145 23.04 8.66406C27.8833 8.66406 31.8306 12.629 31.8254 17.5134C31.8203 22.3821 27.8807 26.3522 23.0218 26.3444C18.1811 26.3366 14.2415 22.3742 14.2467 17.5029H14.2441ZM23.0686 13.3995C23.0426 13.4231 23.0114 13.4518 22.9803 13.4831C21.4662 15.0163 19.9548 16.547 18.4408 18.0776C18.2045 18.3179 18.0539 18.6052 17.9552 18.9238C17.8383 19.3104 17.7189 19.6996 17.6046 20.0888C17.4903 20.4806 17.3735 20.8724 17.2696 21.2668C17.1787 21.6142 17.5033 21.9276 17.8461 21.8336C18.1006 21.7656 18.3525 21.6899 18.6044 21.6168C19.0563 21.4862 19.5056 21.3477 19.96 21.225C20.3963 21.1048 20.7884 20.9168 21.1105 20.5903C22.6089 19.0806 24.1073 17.5735 25.6058 16.0664C25.6265 16.0455 25.6447 16.022 25.6603 16.0011C24.7955 15.1339 23.9359 14.2719 23.066 13.3995H23.0686ZM25.45 11.5059C25.1383 11.5111 24.8604 11.6077 24.6345 11.8271C24.3073 12.1458 23.9879 12.4749 23.6633 12.7936C23.5957 12.8589 23.6061 12.8954 23.6684 12.9555C23.9593 13.2428 24.245 13.5328 24.5332 13.8227C25.0578 14.3503 25.585 14.8805 26.1096 15.4081C26.1485 15.4473 26.1823 15.4917 26.2446 15.429C26.577 15.0895 26.9224 14.7604 27.2444 14.413C27.6548 13.969 27.647 13.2481 27.2341 12.8066C26.9172 12.4697 26.5874 12.1432 26.255 11.8219C26.0343 11.6077 25.759 11.5137 25.4525 11.5059H25.45ZM25.3824 22.1705C25.5382 22.1705 25.6941 22.1705 25.8499 22.1705C26.8056 22.1705 26.3095 22.1705 27.2678 22.1679C27.5898 22.1679 27.8781 21.9198 27.9378 21.6168C28.0053 21.272 27.8521 20.9481 27.5353 20.8201C27.408 20.7679 27.2574 20.7496 27.1172 20.7496C24.9773 20.7444 24.2891 20.747 22.1466 20.747C22.1103 20.747 22.0739 20.747 22.0402 20.747C21.5182 20.7809 21.2065 21.2642 21.3987 21.7369C21.5078 22.0033 21.7649 22.1679 22.0843 22.1679C23.1854 22.1679 24.2839 22.1679 25.385 22.1679L25.3824 22.1705Z" fill="white"/>
</g>
<defs>
<linearGradient id="paint0_linear_4865_3214" x1="74.8906" y1="-14.4257" x2="38.019" y2="49.0697" gradientUnits="userSpaceOnUse">
<stop stop-color="#E540F6"/>
<stop offset="0.09" stop-color="#DD3FF5"/>
<stop offset="0.23" stop-color="#C93CF5"/>
<stop offset="0.4" stop-color="#A739F5"/>
<stop offset="0.6" stop-color="#7833F5"/>
<stop offset="0.81" stop-color="#3D2CF4"/>
<stop offset="1" stop-color="#0026F4"/>
</linearGradient>
<clipPath id="clip0_4865_3214">
<rect width="113.227" height="33.1719" fill="white" transform="translate(0 0.828125)"/>
</clipPath>
</defs>
</svg>
