<svg width="123" height="30" viewBox="0 0 123 30" fill="none" xmlns="http://www.w3.org/2000/svg">
<path d="M107.541 29.5225C115.693 29.5225 122.302 22.9136 122.302 14.7612C122.302 6.60883 115.693 0 107.541 0C99.3881 0 92.7793 6.60883 92.7793 14.7612C92.7793 22.9136 99.3881 29.5225 107.541 29.5225Z" fill="url(#paint0_linear_4815_4019)"/>
<path d="M87.5972 29.5225C95.7496 29.5225 102.358 22.9136 102.358 14.7612C102.358 6.60883 95.7496 0 87.5972 0C79.4448 0 72.8359 6.60883 72.8359 14.7612C72.8359 22.9136 79.4448 29.5225 87.5972 29.5225Z" fill="url(#paint1_linear_4815_4019)"/>
<path d="M92.7793 14.7617C92.7793 19.0703 94.6272 22.9467 97.5711 25.6465C100.515 22.9491 102.363 19.0703 102.363 14.7617C102.363 10.4532 100.515 6.57679 97.5711 3.87695C94.6272 6.57435 92.7793 10.4532 92.7793 14.7617Z" fill="url(#paint2_linear_4815_4019)"/>
<path d="M86.6047 9.05025C86.7927 9.25042 86.8854 9.50674 86.8854 9.82408V16.1855C86.8854 17.1595 86.6804 18.0188 86.2703 18.7682C85.8602 19.5176 85.2865 20.1035 84.5469 20.5258C83.8097 20.9481 82.9651 21.158 82.0155 21.158C81.0659 21.158 80.2188 20.9481 79.4767 20.5258C78.7322 20.1035 78.1561 19.5176 77.746 18.7682C77.3359 18.0188 77.1309 17.1571 77.1309 16.1855V9.82408C77.1309 9.51894 77.2358 9.26507 77.4482 9.06002C77.6581 8.85497 77.9291 8.75244 78.2562 8.75244C78.5369 8.75244 78.7835 8.85497 78.9934 9.06002C79.2033 9.26507 79.3107 9.51894 79.3107 9.82408V16.1855C79.3107 16.747 79.4328 17.2499 79.6794 17.6892C79.9259 18.1286 80.2554 18.4655 80.6729 18.6999C81.0879 18.9342 81.537 19.0514 82.0179 19.0514C82.4988 19.0514 82.9943 18.9342 83.4337 18.6999C83.8731 18.4655 84.2246 18.1286 84.4883 17.6892C84.7519 17.2499 84.8837 16.7494 84.8837 16.1855V9.82408C84.8837 9.50674 84.9716 9.25042 85.1474 9.05025C85.3231 8.85009 85.5624 8.75244 85.8675 8.75244C86.1726 8.75244 86.4167 8.85253 86.6047 9.05025Z" fill="white"/>
<path d="M97.819 19.4561C97.9606 19.6441 98.029 19.8613 98.029 20.1054C98.029 20.4106 97.9167 20.662 97.6945 20.8622C97.4724 21.0623 97.2307 21.16 96.9744 21.16C96.6351 21.16 96.3471 21.0086 96.1127 20.7035L92.9832 16.539L89.9417 20.6693C89.7073 20.9964 89.4144 21.1624 89.0629 21.1624C88.8041 21.1624 88.582 21.0697 88.394 20.8817C88.206 20.6937 88.1133 20.4765 88.1133 20.2324C88.1133 19.9883 88.2012 19.7344 88.3769 19.5122L91.77 14.9254L88.3769 10.4265C88.2256 10.2386 88.1475 10.0286 88.1475 9.79429C88.1475 9.50136 88.2597 9.24993 88.4819 9.03756C88.704 8.82762 88.9506 8.72021 89.2191 8.72021C89.5584 8.72021 89.8464 8.87156 90.0808 9.1767L93.1736 13.2899L96.1957 9.26458C96.3129 9.10102 96.4471 8.97409 96.6009 8.88621C96.7523 8.79833 96.9061 8.75439 97.0574 8.75439C97.3137 8.75439 97.5432 8.85691 97.7434 9.06197C97.9435 9.26702 98.0412 9.4916 98.0412 9.73815C98.0412 9.96028 97.9655 10.1727 97.8117 10.3704L94.3844 14.8864L97.8117 19.4561H97.819Z" fill="white"/>
<path d="M10.2208 18.6648C10.2208 18.9504 10.1281 19.1848 9.94009 19.3654C9.75213 19.546 9.53731 19.6388 9.29565 19.6388C9.09792 19.6388 8.91972 19.5778 8.75861 19.4582C8.59994 19.3361 8.47544 19.1726 8.38756 18.9626L7.5283 16.9658H2.60952L1.75026 18.9797C1.67214 19.1897 1.55497 19.3508 1.39386 19.4679C1.23519 19.5827 1.06187 19.6413 0.873908 19.6413C0.588301 19.6413 0.371045 19.5631 0.222139 19.4093C0.0732325 19.2556 0 19.0456 0 18.782C0 18.6819 0.0170876 18.5794 0.0488217 18.4671L4.15961 8.59291C4.24749 8.37321 4.3793 8.20233 4.55506 8.08028C4.73082 7.95823 4.92855 7.9094 5.14824 7.93137C5.34597 7.93137 5.5315 7.98996 5.70237 8.10469C5.87325 8.21942 5.99774 8.38297 6.07342 8.59291L10.1354 18.2669C10.1915 18.4109 10.2184 18.5428 10.2184 18.6624L10.2208 18.6648ZM3.41752 15.0667H6.7203L5.05304 11.2024L3.41752 15.0667Z" fill="black"/>
<path d="M17.2359 10.9941C17.8072 11.287 18.0952 11.6727 18.0952 12.1585C18.0952 12.4001 18.0244 12.6125 17.8804 12.7932C17.7364 12.9738 17.5508 13.0666 17.3189 13.0666C17.1432 13.0666 16.9992 13.0422 16.8893 12.9933C16.7795 12.9445 16.6721 12.8786 16.5671 12.7956C16.4621 12.7126 16.3596 12.6443 16.262 12.5906C16.1521 12.5344 15.9886 12.4856 15.7737 12.4416C15.5589 12.3977 15.3856 12.3757 15.2538 12.3757C14.4287 12.3757 13.7818 12.6321 13.3131 13.1447C12.8444 13.6573 12.6125 14.3262 12.6125 15.1512C12.6125 15.9763 12.8493 16.6013 13.3229 17.1236C13.7965 17.646 14.4018 17.9072 15.1391 17.9072C15.6785 17.9072 16.0813 17.8413 16.3449 17.7095C16.4109 17.6753 16.5012 17.6192 16.6183 17.5362C16.7331 17.4532 16.8405 17.3897 16.9406 17.3458C17.0407 17.3018 17.1603 17.2799 17.3043 17.2799C17.5801 17.2799 17.7974 17.3678 17.9561 17.5435C18.1147 17.7193 18.1953 17.9463 18.1953 18.2197C18.1953 18.4931 18.0415 18.7323 17.7339 18.9618C17.4263 19.1937 17.0187 19.3768 16.5109 19.5159C16.0056 19.6526 15.4662 19.7234 14.8925 19.7234C14.0454 19.7234 13.2985 19.5257 12.654 19.1278C12.0096 18.7299 11.5116 18.1831 11.1601 17.4849C10.8086 16.7868 10.6328 16.0081 10.6328 15.1488C10.6328 14.2895 10.8159 13.4645 11.1869 12.7712C11.5555 12.0779 12.0706 11.536 12.7297 11.1454C13.3912 10.7549 14.1382 10.5596 14.9755 10.5596C15.9104 10.5596 16.6647 10.706 17.2384 10.9965L17.2359 10.9941Z" fill="black"/>
<path d="M27.1571 10.8398C27.3451 11.0278 27.4378 11.2694 27.4378 11.5672V18.5512C27.4378 18.8368 27.3451 19.076 27.1571 19.2689C26.9691 19.4617 26.7323 19.5569 26.4467 19.5569C26.1611 19.5569 25.9268 19.4642 25.7437 19.2762C25.5606 19.0882 25.4654 18.8514 25.4557 18.5658C25.1798 18.8856 24.8088 19.1566 24.3401 19.3836C23.8714 19.6082 23.3807 19.7229 22.8632 19.7229C22.1041 19.7229 21.4157 19.5276 20.7981 19.1371C20.1805 18.7465 19.6947 18.2046 19.3359 17.5113C18.977 16.818 18.7988 16.032 18.7988 15.1508C18.7988 14.2695 18.9746 13.4811 19.3261 12.7805C19.6776 12.0823 20.161 11.5355 20.7712 11.1449C21.3815 10.7544 22.0552 10.5591 22.7949 10.5591C23.3222 10.5591 23.8177 10.6543 24.2815 10.8471C24.7429 11.04 25.1334 11.2841 25.4532 11.5819V11.5648C25.4532 11.2792 25.546 11.04 25.7339 10.8471C25.9219 10.6543 26.1587 10.5591 26.4443 10.5591C26.7299 10.5591 26.9667 10.6518 27.1547 10.8398H27.1571ZM24.8625 17.1232C25.3141 16.6008 25.5387 15.9417 25.5387 15.1508C25.5387 14.3598 25.3141 13.6983 24.8625 13.1686C24.4109 12.6389 23.8275 12.3752 23.1122 12.3752C22.397 12.3752 21.8307 12.6389 21.3791 13.1686C20.9275 13.6983 20.7029 14.3574 20.7029 15.1508C20.7029 15.9441 20.925 16.6008 21.3717 17.1232C21.8184 17.6455 22.397 17.9067 23.1147 17.9067C23.8323 17.9067 24.4133 17.6455 24.8649 17.1232H24.8625Z" fill="black"/>
<path d="M37.1175 7.61813C37.3055 7.80609 37.3983 8.04776 37.3983 8.34557V18.5493C37.3983 18.8349 37.3055 19.0741 37.1175 19.267C36.9296 19.4598 36.6928 19.555 36.4072 19.555C36.1216 19.555 35.8872 19.4623 35.7066 19.2743C35.526 19.0863 35.4283 18.8496 35.4186 18.5639C35.1427 18.8837 34.7717 19.1547 34.303 19.3817C33.8343 19.6063 33.3436 19.721 32.8261 19.721C32.0669 19.721 31.3786 19.5257 30.761 19.1352C30.1434 18.7446 29.6576 18.2027 29.2988 17.5094C28.9399 16.8161 28.7617 16.0301 28.7617 15.1489C28.7617 14.2676 28.9375 13.4792 29.2914 12.7786C29.6429 12.0804 30.1263 11.5336 30.7366 11.1431C31.3468 10.7525 32.0206 10.5572 32.7602 10.5572C33.2899 10.5572 33.783 10.6524 34.2468 10.8452C34.7082 11.0381 35.0988 11.2822 35.4186 11.58V8.34313C35.4186 8.05752 35.5113 7.8183 35.6993 7.62545C35.8872 7.4326 36.124 7.3374 36.4096 7.3374C36.6952 7.3374 36.932 7.43016 37.12 7.61813H37.1175ZM34.8229 17.1213C35.2745 16.5989 35.4991 15.9398 35.4991 15.1489C35.4991 14.358 35.2745 13.6964 34.8229 13.1667C34.3713 12.637 33.7879 12.3734 33.0727 12.3734C32.3574 12.3734 31.7911 12.637 31.3395 13.1667C30.8879 13.6964 30.6633 14.3555 30.6633 15.1489C30.6633 15.9422 30.8855 16.5989 31.3322 17.1213C31.7789 17.6437 32.3574 17.9049 33.0751 17.9049C33.7928 17.9049 34.3738 17.6437 34.8254 17.1213H34.8229Z" fill="black"/>
<path d="M46.8256 15.576C46.6279 15.742 46.396 15.8225 46.1323 15.8225H40.6838C40.8156 16.4719 41.1183 16.9821 41.5919 17.3507C42.0655 17.7193 42.6001 17.9048 43.1933 17.9048C43.6449 17.9048 43.9964 17.8633 44.2502 17.7803C44.5041 17.6973 44.7043 17.6094 44.8532 17.5167C45.0021 17.4239 45.1046 17.3604 45.1583 17.3263C45.3561 17.2262 45.544 17.1773 45.7198 17.1773C45.9517 17.1773 46.1494 17.2603 46.3154 17.4239C46.4814 17.5899 46.562 17.7827 46.562 18.0024C46.562 18.3002 46.4082 18.5688 46.1006 18.8104C45.793 19.0643 45.3805 19.2791 44.863 19.4549C44.3454 19.6306 43.8231 19.7185 43.2933 19.7185C42.3682 19.7185 41.5626 19.5257 40.8742 19.14C40.1858 18.7543 39.6561 18.2246 39.2802 17.546C38.9067 16.8698 38.7188 16.1057 38.7188 15.2587C38.7188 14.3115 38.9165 13.4815 39.3119 12.7663C39.7074 12.0511 40.2298 11.5043 40.8815 11.1235C41.5309 10.7427 42.2241 10.5547 42.9614 10.5547C43.6986 10.5547 44.3723 10.7524 45.0167 11.1479C45.6612 11.5433 46.1763 12.0779 46.5595 12.7492C46.9452 13.4205 47.138 14.148 47.138 14.9291C47.1258 15.1927 47.0233 15.4076 46.8231 15.5736L46.8256 15.576ZM40.6985 14.1724H45.0241V14.0576C44.9801 13.5963 44.7531 13.1984 44.3479 12.8688C43.9402 12.5393 43.4789 12.3733 42.9614 12.3733C41.6847 12.3733 40.9304 12.9738 40.6985 14.1724Z" fill="black"/>
<path d="M60.9114 11.5565C61.3289 12.2229 61.5388 13.1432 61.5388 14.3223V18.5502C61.5388 18.8358 61.446 19.075 61.2581 19.2679C61.0701 19.4607 60.8333 19.5559 60.5477 19.5559C60.2621 19.5559 60.0253 19.4607 59.8374 19.2679C59.6494 19.075 59.5566 18.8358 59.5566 18.5502V14.3223C59.5566 13.7169 59.437 13.2409 59.2027 12.8942C58.9659 12.5476 58.5509 12.3743 57.9553 12.3743C57.3597 12.3743 56.8568 12.5598 56.5102 12.9284C56.1635 13.297 55.9902 13.7632 55.9902 14.3247V18.5527C55.9902 18.8383 55.8975 19.0775 55.7095 19.2703C55.5215 19.4632 55.2847 19.5584 54.9991 19.5584C54.7135 19.5584 54.4767 19.4632 54.2888 19.2703C54.1008 19.0775 54.0081 18.8383 54.0081 18.5527V14.3247C54.0081 13.7193 53.8884 13.2433 53.6517 12.8967C53.4149 12.55 52.9999 12.3767 52.4043 12.3767C51.8086 12.3767 51.3058 12.5622 50.9591 12.9308C50.6125 13.2994 50.4392 13.7657 50.4392 14.3271V18.5551C50.4392 18.8407 50.3464 19.0799 50.1585 19.2728C49.9705 19.4656 49.7337 19.5608 49.4481 19.5608C49.1625 19.5608 48.9257 19.4656 48.7378 19.2728C48.5498 19.0799 48.457 18.8407 48.457 18.5551V11.7372C48.457 11.4515 48.5498 11.2123 48.7378 11.0195C48.9257 10.8266 49.1625 10.7314 49.4481 10.7314C49.7337 10.7314 49.9705 10.8291 50.1585 11.0195C50.3464 11.2123 50.4392 11.4515 50.4392 11.7372V12.0008C50.737 11.6053 51.1129 11.266 51.5694 10.9853C52.0259 10.7046 52.5361 10.5654 53.0975 10.5654C54.4841 10.5654 55.3702 11.1708 55.7559 12.3816C56.0097 11.9202 56.3905 11.5004 56.9032 11.1269C57.4158 10.7534 57.9943 10.5654 58.6461 10.5654C59.7348 10.5654 60.4891 10.8974 60.909 11.5638L60.9114 11.5565Z" fill="black"/>
<path d="M70.541 11.0117C70.729 11.2045 70.8218 11.4438 70.8218 11.7294V18.7475C70.8218 20.1779 70.4361 21.2203 69.6671 21.8769C68.8957 22.5312 67.868 22.8583 66.5792 22.8583C66.2057 22.8583 65.8224 22.829 65.4318 22.7679C65.0413 22.7069 64.7239 22.6288 64.4823 22.5287C63.9428 22.2968 63.6743 21.977 63.6743 21.5718C63.6743 21.4937 63.6914 21.4058 63.7231 21.3082C63.789 21.0665 63.9013 20.881 64.0624 20.754C64.2211 20.6271 64.3944 20.5636 64.5824 20.5636C64.6922 20.5636 64.7972 20.5807 64.8972 20.6125C64.9754 20.6442 65.1096 20.7003 65.3025 20.7785C65.4953 20.8566 65.6979 20.92 65.9127 20.9689C66.1276 21.0177 66.3497 21.0421 66.5816 21.0421C67.3627 21.0421 67.9388 20.8737 68.3074 20.5392C68.676 20.2024 68.8616 19.6287 68.8616 18.8134V18.6474C68.2879 19.3626 67.3969 19.7215 66.1861 19.7215C65.6125 19.7215 65.1072 19.5872 64.6678 19.3162C64.2284 19.0477 63.8866 18.6718 63.645 18.1933C63.4033 17.7149 63.2812 17.1681 63.2812 16.5505V11.7294C63.2812 11.4438 63.374 11.2045 63.562 11.0117C63.7499 10.8188 63.9867 10.7236 64.2723 10.7236C64.5579 10.7236 64.7947 10.8213 64.9827 11.0117C65.1706 11.2045 65.2634 11.4438 65.2634 11.7294V15.9573C65.2634 16.6506 65.4148 17.1486 65.7175 17.4513C66.0201 17.754 66.462 17.9053 67.0454 17.9053C67.6288 17.9053 68.0609 17.7369 68.3734 17.4024C68.6883 17.0656 68.8445 16.5847 68.8445 15.9573V11.7294C68.8445 11.4438 68.9372 11.2045 69.1252 11.0117C69.3132 10.8188 69.55 10.7236 69.8356 10.7236C70.1212 10.7236 70.358 10.8213 70.5459 11.0117H70.541Z" fill="black"/>
<path d="M109.468 9.05025C109.656 9.25042 109.749 9.50674 109.749 9.82408V16.1855C109.749 17.1595 109.544 18.0188 109.134 18.7682C108.723 19.5176 108.15 20.1035 107.41 20.5258C106.673 20.9481 105.828 21.158 104.879 21.158C103.929 21.158 103.082 20.9481 102.34 20.5258C101.595 20.1035 101.019 19.5176 100.609 18.7682C100.199 18.0188 99.9941 17.1571 99.9941 16.1855V9.82408C99.9941 9.51894 100.099 9.26507 100.311 9.06002C100.521 8.85497 100.792 8.75244 101.119 8.75244C101.4 8.75244 101.647 8.85497 101.857 9.06002C102.067 9.26507 102.174 9.51894 102.174 9.82408V16.1855C102.174 16.747 102.296 17.2499 102.543 17.6892C102.789 18.1286 103.119 18.4655 103.536 18.6999C103.951 18.9342 104.4 19.0514 104.881 19.0514C105.362 19.0514 105.858 18.9342 106.295 18.6999C106.734 18.4655 107.085 18.1286 107.349 17.6892C107.613 17.2499 107.745 16.7494 107.745 16.1855V9.82408C107.745 9.50674 107.832 9.25042 108.008 9.05025C108.184 8.85009 108.423 8.75244 108.728 8.75244C109.033 8.75244 109.28 8.85253 109.466 9.05025H109.468Z" fill="white"/>
<path d="M114.072 20.764C113.849 20.9691 113.591 21.0716 113.298 21.0716C112.98 21.0716 112.719 20.9691 112.517 20.764C112.312 20.559 112.209 20.3051 112.209 20V9.84019C112.209 9.53506 112.314 9.28118 112.526 9.07613C112.736 8.87108 113.007 8.76855 113.334 8.76855C113.627 8.76855 113.879 8.87108 114.091 9.07613C114.303 9.28118 114.408 9.53506 114.408 9.84019V20C114.408 20.3051 114.296 20.559 114.074 20.764H114.072Z" fill="white"/>
<path d="M121.048 25.2392C121.299 25.3833 121.499 25.581 121.646 25.83C121.792 26.079 121.865 26.3572 121.865 26.6648C121.865 26.9724 121.792 27.2531 121.646 27.5046C121.499 27.756 121.299 27.9513 121.048 28.0929C120.796 28.2344 120.523 28.3052 120.222 28.3052C119.922 28.3052 119.651 28.2344 119.397 28.0929C119.146 27.9513 118.948 27.756 118.802 27.5046C118.655 27.2531 118.582 26.9724 118.582 26.6648C118.582 26.3572 118.655 26.079 118.802 25.83C118.948 25.581 119.148 25.3857 119.397 25.2392C119.649 25.0952 119.925 25.0244 120.222 25.0244C120.52 25.0244 120.796 25.0976 121.048 25.2392ZM120.886 27.8219C121.084 27.7096 121.24 27.5509 121.355 27.3483C121.47 27.1457 121.528 26.9187 121.528 26.6648C121.528 26.4109 121.47 26.1839 121.355 25.9813C121.24 25.7787 121.084 25.6225 120.886 25.5077C120.689 25.3955 120.467 25.3393 120.222 25.3393C119.978 25.3393 119.756 25.3955 119.556 25.5077C119.356 25.62 119.197 25.7787 119.08 25.9813C118.963 26.1839 118.904 26.4134 118.904 26.6648C118.904 26.9163 118.963 27.1482 119.08 27.3483C119.197 27.5509 119.356 27.7096 119.556 27.8219C119.756 27.9342 119.978 27.9903 120.222 27.9903C120.467 27.9903 120.689 27.9342 120.886 27.8219ZM120.913 27.3776C120.923 27.3996 120.923 27.4216 120.913 27.4484C120.903 27.4875 120.877 27.5168 120.833 27.5363C120.789 27.5558 120.74 27.5607 120.686 27.5509C120.623 27.5412 120.569 27.4997 120.525 27.4289C120.481 27.3581 120.459 27.2604 120.459 27.1335C120.459 27.0456 120.437 26.9773 120.396 26.926C120.354 26.8748 120.293 26.8479 120.21 26.8479H119.939V27.4045C119.939 27.4386 119.925 27.4704 119.893 27.4997C119.861 27.529 119.825 27.5436 119.785 27.5436C119.746 27.5436 119.712 27.5314 119.683 27.5046C119.654 27.4777 119.639 27.4435 119.639 27.4045V25.9105C119.639 25.8812 119.649 25.8544 119.671 25.83C119.693 25.8056 119.722 25.7934 119.754 25.7934H120.288C120.684 25.7934 120.882 25.9593 120.882 26.2913C120.882 26.5062 120.764 26.6477 120.53 26.7161C120.593 26.7551 120.647 26.8088 120.691 26.8772C120.735 26.9455 120.757 27.0212 120.757 27.1042C120.762 27.1774 120.769 27.2312 120.781 27.2653C120.794 27.2995 120.818 27.3215 120.852 27.3312C120.882 27.341 120.901 27.3581 120.911 27.3801L120.913 27.3776ZM120.496 26.5062C120.559 26.4598 120.591 26.3939 120.591 26.3133C120.591 26.2254 120.564 26.1644 120.51 26.1302C120.457 26.096 120.376 26.079 120.269 26.079H119.939V26.5769H120.247C120.349 26.5769 120.432 26.5525 120.496 26.5062Z" fill="black"/>
<defs>
<linearGradient id="paint0_linear_4815_4019" x1="98.0105" y1="5.23124" x2="121.186" y2="28.4069" gradientUnits="userSpaceOnUse">
<stop stop-color="#7BFAFC"/>
<stop offset="1" stop-color="#0026F4"/>
</linearGradient>
<linearGradient id="paint1_linear_4815_4019" x1="78.3674" y1="5.53149" x2="96.4339" y2="23.598" gradientUnits="userSpaceOnUse">
<stop stop-color="#E540F6"/>
<stop offset="0.13" stop-color="#D03EE5"/>
<stop offset="0.54" stop-color="#9238B5"/>
<stop offset="0.84" stop-color="#6B3596"/>
<stop offset="1" stop-color="#5D348B"/>
</linearGradient>
<linearGradient id="paint2_linear_4815_4019" x1="90.5066" y1="14.7617" x2="104.116" y2="14.7617" gradientUnits="userSpaceOnUse">
<stop stop-color="#E540F6"/>
<stop offset="0.12" stop-color="#DC4EF6"/>
<stop offset="0.36" stop-color="#C675F7"/>
<stop offset="0.68" stop-color="#A2B4F9"/>
<stop offset="1" stop-color="#7BFAFC"/>
</linearGradient>
</defs>
</svg>
