<svg aria-hidden="true" style="position: absolute; width: 0; height: 0; overflow: hidden;" version="1.1" xmlns="http://www.w3.org/2000/svg" xmlns:xlink="http://www.w3.org/1999/xlink">
<defs>
<symbol id="icon-bar-menu--read" viewBox="0 0 23 32">
<path d="M3.48 27.847c-0.895-0.153-1.572-0.498-2.033-1.035-0.46-0.528-0.69-1.232-0.69-2.109v-18.038c0-0.69 0.145-1.274 0.435-1.751s0.695-0.814 1.215-1.010c0.528-0.205 1.142-0.247 1.841-0.128l14.114 2.493c1.389 0.247 2.429 0.686 3.119 1.317 0.69 0.622 1.035 1.624 1.035 3.004v15.75c0 0.997-0.183 1.828-0.55 2.493-0.358 0.673-0.874 1.146-1.547 1.419-0.665 0.273-1.457 0.328-2.378 0.166l-14.561-2.57zM4.234 25.354l13.743 2.429c0.605 0.119 1.082 0.026 1.432-0.281 0.358-0.298 0.537-0.767 0.537-1.406v-15.533c0-0.537-0.153-0.938-0.46-1.202-0.298-0.273-0.737-0.46-1.317-0.563l-13.692-2.403c-0.358-0.068-0.639-0.021-0.844 0.141s-0.307 0.405-0.307 0.729v16.99c0 0.315 0.072 0.562 0.217 0.742 0.145 0.188 0.375 0.307 0.69 0.358zM18.949 8.313v-3.298c0-0.52-0.175-0.895-0.524-1.125-0.349-0.239-0.822-0.307-1.419-0.205l-13.321 2.237-0.818-2.135 13.334-2.365c1.619-0.281 2.885-0.094 3.797 0.563 0.921 0.656 1.381 1.7 1.381 3.132v3.196h-2.429zM6.446 12.058c-0.23-0.043-0.413-0.149-0.55-0.32-0.128-0.17-0.192-0.375-0.192-0.614 0-0.298 0.102-0.528 0.307-0.69 0.213-0.17 0.482-0.226 0.805-0.166l9.473 1.662c0.511 0.085 0.767 0.388 0.767 0.908 0 0.298-0.098 0.537-0.294 0.716s-0.456 0.239-0.78 0.179l-9.537-1.675zM6.446 16.993c-0.23-0.034-0.413-0.132-0.55-0.294-0.128-0.17-0.192-0.384-0.192-0.639 0-0.281 0.102-0.507 0.307-0.678 0.213-0.17 0.482-0.23 0.805-0.179l9.473 1.662c0.511 0.094 0.767 0.401 0.767 0.92 0 0.29-0.098 0.528-0.294 0.716-0.196 0.179-0.456 0.239-0.78 0.179l-9.537-1.688z"></path>
</symbol>
<symbol id="icon-bar-menu--home" viewBox="0 0 35 32">
<path d="M13.55 29.070v-10.153c0-0.328 0.098-0.591 0.295-0.787 0.206-0.197 0.473-0.295 0.802-0.295h5.906c0.328 0 0.591 0.098 0.788 0.295s0.295 0.459 0.295 0.787v10.153h-8.086zM8.052 30.898c-1.069 0-1.903-0.291-2.503-0.872s-0.9-1.388-0.9-2.419v-15.595l2.77-1.884v16.622c0 0.45 0.117 0.792 0.352 1.027 0.234 0.244 0.572 0.366 1.012 0.366h17.564c0.441 0 0.773-0.122 0.998-0.366 0.234-0.234 0.352-0.577 0.352-1.027v-16.622l2.756 1.884v15.595c0 1.031-0.295 1.837-0.886 2.419s-1.42 0.872-2.489 0.872h-19.026zM0.43 15.022c0-0.441 0.183-0.811 0.548-1.111l14.653-12.305c0.609-0.506 1.27-0.759 1.983-0.759s1.369 0.253 1.969 0.759l14.639 12.305c0.366 0.3 0.548 0.684 0.548 1.153 0 0.403-0.14 0.722-0.422 0.956-0.272 0.234-0.609 0.352-1.012 0.352-0.216 0-0.422-0.052-0.619-0.155s-0.38-0.22-0.548-0.351l-13.95-11.714c-0.197-0.169-0.398-0.253-0.605-0.253s-0.408 0.084-0.605 0.253l-13.964 11.714c-0.178 0.131-0.366 0.248-0.563 0.351-0.188 0.103-0.389 0.155-0.605 0.155-0.45 0-0.806-0.131-1.069-0.394-0.253-0.272-0.38-0.591-0.38-0.956zM26.473 8.202v-3.445c0-0.309 0.094-0.558 0.281-0.745 0.197-0.197 0.45-0.295 0.759-0.295h1.912c0.309 0 0.558 0.098 0.745 0.295 0.188 0.188 0.281 0.436 0.281 0.745v6.792l-3.98-3.347z"></path>
</symbol>
<symbol id="icon-bar-menu--collective" viewBox="0 0 66 32">
<path d="M22.601 31.743c-2.812 0-4.219-0.949-4.219-2.846 0-1.125 0.336-2.305 1.009-3.541 0.684-1.235 1.66-2.388 2.928-3.458 1.279-1.070 2.813-1.936 4.599-2.597 1.787-0.673 3.789-1.009 6.005-1.009s4.219 0.336 6.005 1.009c1.798 0.662 3.331 1.528 4.599 2.597s2.239 2.223 2.912 3.458c0.684 1.235 1.026 2.415 1.026 3.541 0 1.897-1.412 2.846-4.235 2.846h-20.631zM22.055 28.881h21.722c0.199 0 0.336-0.033 0.414-0.099 0.088-0.066 0.132-0.176 0.132-0.331 0-0.64-0.248-1.368-0.744-2.184-0.496-0.827-1.235-1.627-2.217-2.399-0.971-0.783-2.167-1.428-3.59-1.936-1.412-0.518-3.028-0.778-4.847-0.778-1.831 0-3.452 0.259-4.864 0.778-1.412 0.507-2.603 1.153-3.573 1.936-0.971 0.772-1.71 1.572-2.217 2.399-0.496 0.816-0.745 1.544-0.745 2.184 0 0.154 0.039 0.265 0.116 0.331 0.088 0.066 0.226 0.099 0.414 0.099zM32.925 16.357c-1.323 0-2.537-0.353-3.64-1.059-1.092-0.706-1.963-1.649-2.614-2.829-0.651-1.191-0.976-2.504-0.976-3.938 0-1.412 0.325-2.697 0.976-3.855 0.651-1.169 1.522-2.101 2.614-2.796 1.103-0.695 2.316-1.042 3.64-1.042 1.346 0 2.564 0.342 3.656 1.026 1.103 0.684 1.974 1.605 2.614 2.763 0.651 1.158 0.976 2.449 0.976 3.871 0 1.445-0.325 2.763-0.976 3.954s-1.528 2.14-2.631 2.846c-1.092 0.706-2.305 1.059-3.64 1.059zM32.925 13.478c0.783 0 1.495-0.221 2.134-0.662s1.153-1.037 1.539-1.787c0.386-0.761 0.579-1.605 0.579-2.531 0-0.904-0.193-1.721-0.579-2.449s-0.899-1.301-1.539-1.721c-0.64-0.419-1.351-0.629-2.134-0.629-0.761 0-1.467 0.215-2.118 0.645-0.64 0.419-1.153 0.998-1.539 1.737-0.386 0.728-0.574 1.544-0.562 2.449 0 0.926 0.193 1.765 0.579 2.515s0.899 1.346 1.539 1.787c0.651 0.43 1.351 0.645 2.101 0.645zM4.651 31.743c-1.18 0-2.068-0.248-2.664-0.744s-0.893-1.241-0.893-2.234c0-1.368 0.325-2.68 0.976-3.937 0.662-1.269 1.572-2.393 2.73-3.375s2.504-1.754 4.037-2.316c1.533-0.573 3.171-0.86 4.914-0.86 0.86 0 1.715 0.077 2.564 0.232 0.849 0.143 1.671 0.364 2.465 0.662 0.805 0.298 1.561 0.662 2.267 1.092-0.452 0.298-0.855 0.623-1.208 0.976-0.353 0.342-0.662 0.712-0.927 1.109-0.485-0.276-1.009-0.502-1.572-0.678-0.563-0.187-1.147-0.331-1.754-0.43-0.607-0.11-1.219-0.165-1.836-0.165-1.313 0-2.559 0.21-3.739 0.629-1.169 0.408-2.206 0.965-3.11 1.671-0.893 0.695-1.599 1.489-2.118 2.382-0.507 0.882-0.761 1.798-0.761 2.746 0 0.155 0.033 0.265 0.099 0.331 0.077 0.066 0.199 0.099 0.364 0.099h11.63c-0.055 0.552 0.050 1.092 0.314 1.621 0.265 0.54 0.623 0.937 1.075 1.191h-12.855zM13.767 16.539c-1.158 0-2.217-0.309-3.176-0.926-0.949-0.618-1.71-1.445-2.283-2.482-0.563-1.048-0.844-2.206-0.844-3.474-0.011-1.235 0.265-2.36 0.827-3.375 0.573-1.026 1.34-1.842 2.3-2.449 0.96-0.618 2.018-0.926 3.176-0.926s2.211 0.303 3.16 0.91c0.96 0.607 1.721 1.417 2.283 2.432 0.574 1.015 0.86 2.145 0.86 3.392 0 1.257-0.287 2.415-0.86 3.474-0.574 1.048-1.335 1.88-2.283 2.498s-2.002 0.926-3.16 0.926zM13.767 13.71c0.629 0 1.208-0.182 1.737-0.546s0.954-0.849 1.274-1.456c0.32-0.618 0.48-1.307 0.48-2.068 0-0.739-0.16-1.401-0.48-1.985-0.309-0.596-0.728-1.064-1.257-1.406s-1.114-0.513-1.754-0.513c-0.64 0-1.224 0.176-1.754 0.529-0.529 0.342-0.954 0.811-1.274 1.406-0.309 0.596-0.458 1.257-0.447 1.985 0 0.75 0.154 1.434 0.463 2.051 0.32 0.618 0.745 1.108 1.274 1.472 0.529 0.353 1.108 0.529 1.737 0.529zM61.232 31.743h-12.855c0.441-0.254 0.794-0.651 1.059-1.191 0.265-0.529 0.37-1.070 0.314-1.621h11.647c0.165 0 0.281-0.033 0.347-0.099s0.099-0.176 0.099-0.331c0-0.949-0.259-1.864-0.778-2.746-0.507-0.893-1.213-1.687-2.118-2.382-0.893-0.706-1.925-1.263-3.094-1.671-1.169-0.419-2.416-0.629-3.739-0.629-0.618 0-1.23 0.055-1.836 0.165-0.606 0.099-1.191 0.243-1.754 0.43-0.562 0.177-1.087 0.403-1.572 0.678-0.265-0.397-0.574-0.767-0.926-1.109-0.353-0.353-0.75-0.678-1.191-0.976 0.695-0.43 1.439-0.794 2.234-1.092 0.805-0.298 1.632-0.518 2.481-0.662 0.849-0.154 1.704-0.232 2.564-0.232 1.754 0 3.392 0.287 4.914 0.86 1.533 0.562 2.879 1.335 4.037 2.316s2.063 2.107 2.713 3.375c0.662 1.257 0.993 2.57 0.993 3.937 0 0.993-0.298 1.737-0.894 2.234-0.584 0.496-1.467 0.744-2.647 0.744zM52.099 16.539c-1.147 0-2.2-0.309-3.16-0.926-0.949-0.618-1.71-1.45-2.283-2.498-0.562-1.059-0.844-2.217-0.844-3.474 0-1.246 0.281-2.377 0.844-3.392s1.318-1.825 2.267-2.432c0.96-0.607 2.018-0.91 3.176-0.91s2.217 0.309 3.176 0.926c0.96 0.607 1.721 1.423 2.283 2.449 0.574 1.015 0.855 2.14 0.844 3.375 0 1.268-0.287 2.427-0.86 3.474-0.562 1.037-1.323 1.864-2.283 2.482-0.949 0.618-2.002 0.926-3.16 0.926zM52.099 13.71c0.629 0 1.208-0.176 1.737-0.529 0.529-0.364 0.954-0.855 1.274-1.472s0.48-1.301 0.48-2.051c0-0.728-0.16-1.39-0.48-1.985-0.309-0.596-0.728-1.064-1.257-1.406-0.529-0.353-1.114-0.529-1.754-0.529s-1.224 0.171-1.754 0.513c-0.518 0.342-0.938 0.811-1.257 1.406-0.32 0.585-0.48 1.246-0.48 1.985 0 0.761 0.16 1.45 0.48 2.068 0.32 0.607 0.744 1.092 1.274 1.456 0.54 0.364 1.119 0.546 1.737 0.546z"></path>
</symbol>
<symbol id="icon-bar-menu--learn" viewBox="0 0 35 32">
<path d="M17.379 17.859c-0.53 0.008-1.076-0.057-1.639-0.196-0.554-0.147-1.166-0.371-1.834-0.673l-12.082-5.527c-0.44-0.188-0.774-0.461-1.003-0.819-0.22-0.367-0.33-0.754-0.33-1.162s0.11-0.791 0.33-1.149c0.228-0.359 0.563-0.636 1.003-0.832l12.082-5.527c0.668-0.293 1.28-0.51 1.834-0.648 0.563-0.147 1.109-0.216 1.639-0.208 0.53-0.008 1.076 0.061 1.639 0.208 0.563 0.139 1.178 0.355 1.847 0.648l12.082 5.527c0.44 0.196 0.77 0.473 0.99 0.832 0.228 0.359 0.342 0.742 0.342 1.149s-0.114 0.795-0.342 1.162c-0.22 0.359-0.55 0.632-0.99 0.819l-12.082 5.527c-0.669 0.302-1.284 0.526-1.847 0.673-0.563 0.139-1.109 0.204-1.639 0.196zM17.379 15.499c0.391 0 0.787-0.053 1.186-0.159 0.407-0.114 0.868-0.285 1.382-0.514l10.92-4.965c0.188-0.090 0.281-0.216 0.281-0.379 0-0.155-0.094-0.277-0.281-0.367l-10.92-4.965c-0.514-0.236-0.974-0.408-1.382-0.514-0.4-0.106-0.795-0.159-1.186-0.159s-0.787 0.053-1.186 0.159-0.856 0.277-1.37 0.514l-10.92 4.965c-0.188 0.090-0.281 0.212-0.281 0.367 0 0.163 0.094 0.289 0.281 0.379l10.92 4.965c0.514 0.228 0.97 0.4 1.37 0.514 0.399 0.106 0.795 0.159 1.186 0.159zM5.298 18.568v-6.395h2.336v6.395c0 0.62 0.228 1.219 0.685 1.798 0.465 0.571 1.125 1.080 1.981 1.529 0.856 0.44 1.883 0.791 3.082 1.052 1.198 0.269 2.531 0.403 3.999 0.403 1.476 0 2.808-0.135 3.999-0.403 1.198-0.261 2.226-0.611 3.082-1.052 0.864-0.448 1.524-0.958 1.981-1.529 0.465-0.579 0.697-1.178 0.697-1.798v-6.395h2.336v6.395c0 0.97-0.293 1.879-0.88 2.727-0.579 0.84-1.402 1.577-2.47 2.213-1.068 0.644-2.344 1.145-3.827 1.504s-3.122 0.538-4.916 0.538-3.432-0.179-4.916-0.538c-1.476-0.359-2.751-0.86-3.827-1.504-1.068-0.636-1.891-1.374-2.47-2.213-0.579-0.848-0.868-1.757-0.868-2.727zM17.416 11.035c-0.456 0-0.897-0.065-1.321-0.196-0.416-0.139-0.758-0.322-1.027-0.55-0.261-0.236-0.391-0.505-0.391-0.807 0-0.293 0.13-0.554 0.391-0.783 0.269-0.228 0.611-0.408 1.027-0.538 0.424-0.13 0.864-0.196 1.321-0.196 0.465 0 0.905 0.065 1.321 0.196 0.424 0.13 0.766 0.31 1.027 0.538s0.391 0.489 0.391 0.783c0 0.302-0.13 0.571-0.391 0.807-0.261 0.228-0.599 0.412-1.015 0.55-0.416 0.13-0.86 0.196-1.333 0.196zM10.299 14.007l-1.798-0.954 7.863-4.072 0.807 1.418-6.872 3.607zM8.501 25.954v-12.852l1.798 0.905v11.959l-1.798-0.012zM7.425 26.247c0-0.514 0.155-0.929 0.465-1.247 0.318-0.31 0.738-0.465 1.26-0.465h0.489c0.514 0 0.925 0.155 1.235 0.465 0.318 0.318 0.477 0.734 0.477 1.247v3.277c0 0.522-0.159 0.937-0.477 1.247-0.31 0.318-0.721 0.477-1.235 0.477h-0.489c-0.522 0-0.942-0.159-1.26-0.477-0.31-0.31-0.465-0.726-0.465-1.247v-3.277z"></path>
</symbol>
<symbol id="icon-bar-menu--practice" viewBox="0 0 32 32">
<path d="M10.17 18.399l-8.080-8.067c-0.946-0.946-1.419-1.909-1.419-2.889 0-0.989 0.456-1.943 1.368-2.864l1.803-1.803c0.92-0.929 1.875-1.389 2.864-1.381s1.956 0.486 2.902 1.432l8.604 8.655-1.419 1.432-8.744-8.732c-0.452-0.452-0.908-0.678-1.368-0.678-0.452-0.009-0.895 0.209-1.33 0.652l-1.918 1.93c-0.435 0.443-0.652 0.891-0.652 1.342 0 0.443 0.222 0.891 0.665 1.342l8.182 8.22-1.457 1.406zM9.634 12.8l-4.653-4.641c-0.111-0.102-0.166-0.234-0.166-0.396 0.009-0.17 0.064-0.315 0.166-0.435 0.119-0.102 0.256-0.149 0.409-0.141 0.162 0 0.294 0.047 0.396 0.141l4.666 4.666c0.111 0.119 0.166 0.256 0.166 0.409s-0.055 0.286-0.166 0.396c-0.111 0.111-0.247 0.166-0.409 0.166-0.153 0-0.29-0.055-0.409-0.166zM11.257 11.202l-4.641-4.679c-0.102-0.111-0.158-0.243-0.166-0.396 0-0.153 0.055-0.29 0.166-0.409 0.111-0.102 0.243-0.153 0.396-0.153 0.153-0.009 0.29 0.043 0.409 0.153l4.666 4.653c0.102 0.111 0.153 0.247 0.153 0.409 0 0.153-0.060 0.294-0.179 0.422-0.102 0.102-0.234 0.158-0.396 0.166-0.162 0-0.298-0.055-0.409-0.166zM27.582 30.736c-0.162 0.162-0.354 0.243-0.575 0.243-0.213 0.008-0.43-0.060-0.652-0.205l-4.052-2.736c-0.213-0.136-0.392-0.311-0.537-0.524s-0.23-0.443-0.256-0.69l-0.179-1.125-5.676-5.663 1.393-1.547 6.328 6.341 0.256 1.432 3.119 2.352 1.125-1.125-2.352-3.145-1.432-0.23-6.379-6.366 1.393-1.547 5.855 5.855 1.125 0.179c0.511 0.077 0.925 0.345 1.24 0.805l2.685 4.027c0.145 0.222 0.222 0.443 0.23 0.665s-0.064 0.413-0.217 0.575l-2.442 2.429zM2.871 29.189c-0.75-0.759-1.253-1.585-1.509-2.48-0.247-0.886-0.247-1.768 0-2.646 0.256-0.878 0.75-1.683 1.483-2.416 0.46-0.46 0.95-0.861 1.47-1.202 0.528-0.341 1.104-0.686 1.726-1.035 0.631-0.35 1.33-0.75 2.097-1.202 0.767-0.46 1.619-1.023 2.557-1.688 0.938-0.673 1.986-1.508 3.145-2.506s2.446-2.212 3.861-3.643l1.33 1.342c-1.585 1.585-2.979 2.902-4.18 3.95s-2.263 1.905-3.183 2.57c-0.92 0.656-1.726 1.193-2.416 1.611s-1.317 0.78-1.879 1.087c-0.554 0.307-1.078 0.626-1.572 0.959-0.486 0.332-0.984 0.75-1.496 1.253-0.673 0.673-1.014 1.423-1.023 2.25-0.009 0.835 0.341 1.615 1.048 2.34 0.716 0.707 1.491 1.053 2.327 1.035 0.844-0.008 1.598-0.349 2.263-1.023 0.511-0.503 0.929-1.001 1.253-1.496 0.332-0.486 0.652-1.006 0.959-1.56 0.307-0.562 0.669-1.189 1.087-1.879 0.418-0.699 0.959-1.504 1.624-2.416s1.517-1.973 2.557-3.183c1.048-1.21 2.365-2.608 3.95-4.193l1.342 1.342c-1.423 1.406-2.633 2.689-3.631 3.848-0.988 1.151-1.82 2.199-2.493 3.145-0.673 0.937-1.24 1.79-1.7 2.557s-0.865 1.462-1.214 2.084c-0.341 0.631-0.686 1.21-1.036 1.739s-0.754 1.023-1.214 1.483c-0.724 0.741-1.53 1.236-2.416 1.483-0.878 0.247-1.76 0.243-2.646-0.013-0.886-0.247-1.709-0.746-2.467-1.496zM6.591 27.016c-0.418 0-0.776-0.149-1.074-0.447s-0.447-0.656-0.447-1.074c0-0.418 0.149-0.771 0.447-1.061 0.298-0.298 0.656-0.448 1.074-0.448s0.776 0.149 1.074 0.448c0.298 0.29 0.447 0.643 0.447 1.061s-0.149 0.776-0.447 1.074-0.656 0.447-1.074 0.447zM18.672 13.388c-0.75-0.741-1.317-1.572-1.7-2.493-0.375-0.929-0.571-1.875-0.588-2.838s0.149-1.896 0.498-2.8c0.35-0.912 0.882-1.722 1.598-2.429 0.793-0.801 1.705-1.372 2.736-1.713 1.040-0.341 2.114-0.443 3.222-0.307 1.116 0.128 2.169 0.499 3.158 1.112l-1.457 1.457c-1.040-0.554-2.139-0.754-3.298-0.601-1.159 0.145-2.148 0.626-2.966 1.445-0.699 0.69-1.159 1.504-1.381 2.442-0.213 0.929-0.188 1.866 0.077 2.812 0.264 0.938 0.767 1.777 1.509 2.518 0.733 0.724 1.573 1.219 2.519 1.483s1.879 0.29 2.8 0.077c0.929-0.213 1.743-0.665 2.442-1.355 0.545-0.537 0.942-1.159 1.189-1.866s0.345-1.445 0.294-2.212-0.26-1.509-0.626-2.224l1.445-1.445c0.622 0.997 0.997 2.054 1.125 3.17 0.128 1.108 0.021 2.182-0.32 3.222s-0.908 1.956-1.7 2.749c-0.716 0.716-1.53 1.249-2.442 1.598-0.903 0.349-1.841 0.516-2.813 0.498-0.963-0.025-1.905-0.23-2.825-0.614s-1.751-0.946-2.493-1.688zM22.597 7.622c-0.494-0.486-0.75-1.010-0.767-1.572-0.008-0.563 0.226-1.078 0.703-1.547l2.723-2.749 1.266 1.24-2.442 2.429c-0.341 0.341-0.324 0.703 0.051 1.087l1.445 1.445c0.349 0.358 0.699 0.358 1.048 0l2.429-2.403 1.24 1.227-2.749 2.761c-0.452 0.452-0.959 0.673-1.521 0.665s-1.082-0.251-1.56-0.729l-1.866-1.854z"></path>
</symbol>
<symbol id="icon-menu--rects" viewBox="0 0 32 32">
<path d="M4.308 14.868c-1.45 0-2.529-0.349-3.237-1.046-0.697-0.708-1.046-1.799-1.046-3.271v-6.076c0-1.472 0.349-2.557 1.046-3.254 0.708-0.708 1.787-1.063 3.237-1.063h6.159c1.45 0 2.523 0.354 3.221 1.063 0.697 0.697 1.046 1.782 1.046 3.254v6.076c0 1.472-0.349 2.562-1.046 3.271-0.697 0.697-1.771 1.046-3.221 1.046h-6.159zM4.308 11.448h6.159c0.288 0 0.498-0.072 0.631-0.216 0.144-0.144 0.216-0.365 0.216-0.664v-6.126c0-0.288-0.072-0.504-0.216-0.647-0.133-0.144-0.343-0.216-0.631-0.216h-6.159c-0.299 0-0.52 0.072-0.664 0.216-0.133 0.144-0.199 0.36-0.199 0.647v6.126c0 0.299 0.066 0.52 0.199 0.664 0.144 0.144 0.365 0.216 0.664 0.216zM21.341 14.868c-1.45 0-2.529-0.349-3.237-1.046-0.697-0.708-1.046-1.799-1.046-3.271v-6.076c0-1.472 0.349-2.557 1.046-3.254 0.708-0.708 1.787-1.063 3.237-1.063h6.159c1.45 0 2.523 0.354 3.221 1.063 0.697 0.697 1.046 1.782 1.046 3.254v6.076c0 1.472-0.349 2.562-1.046 3.271-0.697 0.697-1.771 1.046-3.221 1.046h-6.159zM21.341 11.448h6.159c0.299 0 0.515-0.072 0.647-0.216s0.199-0.365 0.199-0.664v-6.126c0-0.288-0.066-0.504-0.199-0.647s-0.349-0.216-0.647-0.216h-6.159c-0.299 0-0.52 0.072-0.664 0.216-0.133 0.144-0.199 0.36-0.199 0.647v6.126c0 0.299 0.066 0.52 0.199 0.664 0.144 0.144 0.365 0.216 0.664 0.216zM4.308 31.901c-1.45 0-2.529-0.354-3.237-1.063-0.697-0.697-1.046-1.782-1.046-3.254v-6.093c0-1.461 0.349-2.54 1.046-3.237 0.708-0.708 1.787-1.063 3.237-1.063h6.159c1.45 0 2.523 0.354 3.221 1.063 0.697 0.697 1.046 1.776 1.046 3.237v6.093c0 1.472-0.349 2.557-1.046 3.254-0.697 0.708-1.771 1.063-3.221 1.063h-6.159zM4.308 28.481h6.159c0.288 0 0.498-0.072 0.631-0.216 0.144-0.144 0.216-0.36 0.216-0.647v-6.126c0-0.299-0.072-0.52-0.216-0.664-0.133-0.144-0.343-0.216-0.631-0.216h-6.159c-0.299 0-0.52 0.072-0.664 0.216-0.133 0.144-0.199 0.365-0.199 0.664v6.126c0 0.288 0.066 0.504 0.199 0.647 0.144 0.144 0.365 0.216 0.664 0.216zM21.341 31.901c-1.45 0-2.529-0.354-3.237-1.063-0.697-0.697-1.046-1.782-1.046-3.254v-6.093c0-1.461 0.349-2.54 1.046-3.237 0.708-0.708 1.787-1.063 3.237-1.063h6.159c1.45 0 2.523 0.354 3.221 1.063 0.697 0.697 1.046 1.776 1.046 3.237v6.093c0 1.472-0.349 2.557-1.046 3.254-0.697 0.708-1.771 1.063-3.221 1.063h-6.159zM21.341 28.481h6.159c0.299 0 0.515-0.072 0.647-0.216s0.199-0.36 0.199-0.647v-6.126c0-0.299-0.066-0.52-0.199-0.664s-0.349-0.216-0.647-0.216h-6.159c-0.299 0-0.52 0.072-0.664 0.216-0.133 0.144-0.199 0.365-0.199 0.664v6.126c0 0.288 0.066 0.504 0.199 0.647 0.144 0.144 0.365 0.216 0.664 0.216z"></path>
</symbol>
<symbol id="icon-menu--lines" viewBox="0 0 53 32">
<path d="M2.614 30.17c-0.696 0-1.29-0.259-1.783-0.778s-0.74-1.12-0.74-1.802c0-0.696 0.24-1.296 0.721-1.802 0.493-0.506 1.094-0.759 1.802-0.759h45.763c0.708 0 1.303 0.253 1.784 0.759 0.493 0.494 0.74 1.094 0.74 1.802 0 0.696-0.247 1.303-0.74 1.822-0.481 0.506-1.075 0.759-1.784 0.759h-45.763zM2.614 18.615c-0.696 0-1.29-0.259-1.783-0.778s-0.74-1.119-0.74-1.802c0-0.696 0.24-1.296 0.721-1.802 0.493-0.506 1.094-0.759 1.802-0.759h45.763c0.708 0 1.303 0.253 1.784 0.759 0.493 0.493 0.74 1.094 0.74 1.802 0 0.696-0.247 1.303-0.74 1.821-0.481 0.506-1.075 0.759-1.784 0.759h-45.763zM2.614 7.060c-0.696 0-1.29-0.253-1.783-0.759-0.493-0.519-0.74-1.119-0.74-1.802 0-0.696 0.24-1.296 0.721-1.802 0.493-0.519 1.094-0.778 1.802-0.778h45.763c0.708 0 1.303 0.253 1.784 0.759 0.493 0.506 0.74 1.113 0.74 1.821 0 0.683-0.247 1.284-0.74 1.802-0.481 0.506-1.075 0.759-1.784 0.759h-45.763z"></path>
</symbol>
<symbol id="icon-menu--close" viewBox="0 0 31 32">
<path d="M5.105 26.298c-0.234-0.234-0.391-0.511-0.469-0.831-0.071-0.313-0.067-0.628 0.011-0.948 0.078-0.312 0.227-0.579 0.447-0.799l8.118-8.129-8.118-8.118c-0.22-0.213-0.369-0.476-0.447-0.788-0.078-0.32-0.078-0.639 0-0.959s0.231-0.597 0.458-0.831c0.234-0.234 0.511-0.391 0.831-0.469 0.327-0.078 0.646-0.078 0.959 0s0.579 0.227 0.799 0.447l8.118 8.118 8.118-8.107c0.227-0.234 0.497-0.387 0.81-0.458 0.312-0.078 0.625-0.075 0.937 0.011 0.32 0.078 0.597 0.234 0.831 0.469s0.391 0.508 0.469 0.82c0.085 0.313 0.089 0.629 0.011 0.948-0.078 0.313-0.231 0.582-0.458 0.81l-8.107 8.107 8.107 8.118c0.227 0.227 0.376 0.497 0.447 0.81 0.078 0.313 0.078 0.625 0 0.938-0.078 0.32-0.234 0.6-0.469 0.842-0.234 0.234-0.511 0.391-0.831 0.469-0.312 0.078-0.625 0.078-0.937 0-0.312-0.071-0.582-0.22-0.81-0.447l-8.118-8.118-8.118 8.118c-0.22 0.22-0.487 0.369-0.799 0.447s-0.629 0.078-0.948 0c-0.32-0.078-0.6-0.234-0.842-0.469z"></path>
</symbol>
<symbol id="icon-ring" viewBox="0 0 30 32">
<path d="M1.181 23.917c0-0.546 0.12-1.055 0.361-1.528 0.25-0.472 0.574-0.921 0.972-1.347s0.819-0.833 1.264-1.222c0.37-0.315 0.653-0.722 0.847-1.222 0.194-0.509 0.343-1.097 0.444-1.764 0.111-0.676 0.218-1.426 0.319-2.25 0.102-1.63 0.366-3.093 0.792-4.389 0.435-1.296 1.046-2.389 1.833-3.278s1.768-1.546 2.944-1.972c0.306-0.954 0.843-1.732 1.611-2.333 0.778-0.602 1.69-0.903 2.736-0.903 1.056 0 1.968 0.301 2.736 0.903s1.31 1.38 1.625 2.333c1.176 0.426 2.153 1.083 2.93 1.972 0.787 0.889 1.394 1.982 1.82 3.278 0.435 1.296 0.708 2.759 0.819 4.389 0.102 0.824 0.204 1.574 0.306 2.25 0.111 0.667 0.264 1.255 0.458 1.764 0.195 0.5 0.472 0.908 0.833 1.222 0.444 0.389 0.866 0.796 1.264 1.222s0.722 0.875 0.972 1.347c0.25 0.472 0.375 0.981 0.375 1.528 0 0.732-0.245 1.319-0.736 1.764s-1.153 0.667-1.986 0.667h-5.458c-0.037 0.889-0.305 1.732-0.805 2.528s-1.19 1.444-2.069 1.944c-0.87 0.5-1.898 0.75-3.083 0.75-1.176 0-2.204-0.255-3.083-0.764-0.88-0.5-1.569-1.148-2.069-1.944-0.491-0.787-0.755-1.625-0.792-2.514h-5.458c-0.833 0-1.495-0.222-1.986-0.667s-0.736-1.032-0.736-1.764zM5.597 23.028h19.347v-0.153c-0.185-0.13-0.38-0.282-0.583-0.458s-0.412-0.37-0.625-0.583c-0.213-0.213-0.426-0.444-0.639-0.694-0.213-0.268-0.403-0.606-0.569-1.014-0.157-0.417-0.296-0.884-0.417-1.403-0.111-0.528-0.208-1.088-0.292-1.68-0.083-0.602-0.143-1.218-0.18-1.847-0.083-1.62-0.306-2.926-0.667-3.917-0.352-0.991-0.805-1.741-1.361-2.25-0.546-0.509-1.153-0.852-1.819-1.028-0.157-0.037-0.287-0.102-0.389-0.194-0.093-0.093-0.148-0.245-0.167-0.458-0.056-0.676-0.255-1.208-0.597-1.597-0.333-0.398-0.778-0.597-1.333-0.597s-1.005 0.199-1.347 0.597c-0.333 0.389-0.528 0.921-0.583 1.597-0.019 0.213-0.079 0.366-0.181 0.458-0.093 0.093-0.218 0.157-0.375 0.194-0.667 0.176-1.278 0.519-1.833 1.028-0.546 0.509-1 1.259-1.361 2.25-0.352 0.991-0.565 2.296-0.639 3.917-0.046 0.63-0.111 1.245-0.194 1.847-0.074 0.593-0.171 1.153-0.292 1.68-0.111 0.519-0.25 0.986-0.417 1.403-0.167 0.407-0.356 0.745-0.569 1.014-0.204 0.25-0.421 0.482-0.653 0.694-0.222 0.213-0.444 0.407-0.667 0.583s-0.421 0.329-0.597 0.458v0.153zM12.778 26.347c0.046 0.759 0.306 1.366 0.778 1.82 0.472 0.463 1.056 0.694 1.75 0.694 0.704 0 1.287-0.231 1.75-0.694 0.472-0.454 0.731-1.060 0.778-1.82h-5.055z"></path>
</symbol>
<symbol id="icon-bookmark" viewBox="0 0 20 32">
<path d="M2.216 31.195c-0.589 0-1.063-0.192-1.42-0.576-0.348-0.384-0.522-0.902-0.522-1.554v-23.437c0-1.375 0.357-2.424 1.071-3.147s1.75-1.085 3.107-1.085h10.781c1.357 0 2.393 0.362 3.107 1.085 0.723 0.723 1.085 1.772 1.085 3.147v23.437c0 0.652-0.178 1.17-0.536 1.554-0.348 0.384-0.822 0.576-1.42 0.576-0.393 0-0.75-0.107-1.071-0.322-0.313-0.214-0.75-0.594-1.312-1.138l-5.129-5.089c-0.071-0.080-0.147-0.080-0.228 0l-5.116 5.089c-0.563 0.545-1.009 0.924-1.339 1.138-0.321 0.214-0.674 0.322-1.058 0.322zM3.622 26.307l5.223-5.076c0.33-0.313 0.665-0.469 1.004-0.469s0.67 0.156 0.991 0.469l5.237 5.076c0.089 0.080 0.174 0.107 0.254 0.080 0.089-0.018 0.134-0.089 0.134-0.214v-20.317c0-0.509-0.125-0.884-0.375-1.125-0.25-0.25-0.625-0.375-1.125-0.375h-10.219c-0.518 0-0.902 0.125-1.152 0.375-0.241 0.241-0.362 0.616-0.362 1.125v20.317c0 0.125 0.040 0.196 0.121 0.214 0.080 0.027 0.17 0 0.268-0.080z"></path>
</symbol>
<symbol id="icon-bookmark--checked" viewBox="0 0 21 32">
<path d="M3.014 30.384c-0.66 0-1.189-0.217-1.589-0.651-0.399-0.425-0.599-0.994-0.599-1.706v-22.904c0-1.389 0.369-2.452 1.107-3.19 0.747-0.747 1.81-1.12 3.19-1.12h10.651c1.372 0 2.426 0.373 3.164 1.12 0.747 0.738 1.12 1.801 1.12 3.19v22.904c0 0.712-0.2 1.281-0.599 1.706-0.399 0.434-0.929 0.651-1.589 0.651-0.417 0-0.79-0.104-1.12-0.313s-0.755-0.564-1.276-1.068l-4.922-4.909c-0.069-0.069-0.139-0.069-0.208 0l-4.922 4.909c-0.512 0.503-0.942 0.859-1.289 1.068-0.339 0.208-0.712 0.313-1.12 0.313z"></path>
</symbol>
<symbol id="icon-arrow--unroll" viewBox="0 0 36 32">
<path d="M19.734 31.609c-0.729 0-1.339-0.245-1.828-0.734-0.49-0.479-0.734-1.083-0.734-1.813v-5.031h-0.281c-1.729 0-3.229 0.208-4.5 0.625s-2.37 1.047-3.297 1.891c-0.917 0.833-1.714 1.875-2.391 3.125-0.354 0.677-0.75 1.141-1.188 1.391s-0.922 0.375-1.453 0.375c-0.75 0-1.344-0.37-1.781-1.109-0.438-0.729-0.656-1.823-0.656-3.281 0-2.75 0.318-5.208 0.953-7.375 0.646-2.167 1.604-4.005 2.875-5.516 1.281-1.521 2.875-2.677 4.781-3.469s4.125-1.188 6.656-1.188h0.281v-5.078c0-0.719 0.245-1.328 0.734-1.828 0.49-0.51 1.104-0.766 1.844-0.766 0.469 0 0.901 0.099 1.297 0.297s0.849 0.536 1.359 1.016l12.438 11.531c0.323 0.292 0.557 0.62 0.703 0.984s0.219 0.719 0.219 1.063c0 0.333-0.078 0.687-0.234 1.062-0.146 0.365-0.375 0.698-0.687 1l-12.438 11.578c-0.469 0.437-0.911 0.755-1.328 0.953s-0.865 0.297-1.344 0.297zM20.859 26.547c0.094 0 0.177-0.042 0.25-0.125l10-9.422c0.052-0.052 0.089-0.099 0.109-0.141 0.021-0.052 0.031-0.099 0.031-0.141 0-0.083-0.047-0.177-0.141-0.281l-9.984-9.484c-0.042-0.031-0.083-0.057-0.125-0.078s-0.083-0.031-0.125-0.031c-0.177 0-0.266 0.089-0.266 0.266v5.438c0 0.333-0.167 0.5-0.5 0.5h-1.859c-1.823 0-3.448 0.208-4.875 0.625-1.417 0.417-2.646 1.016-3.688 1.797-1.042 0.771-1.906 1.698-2.594 2.781-0.677 1.073-1.188 2.271-1.531 3.594-0.344 1.312-0.536 2.719-0.578 4.219 0 0.094 0.036 0.141 0.109 0.141 0.031 0 0.057-0.010 0.078-0.031s0.042-0.057 0.063-0.109c0.969-1.917 2.531-3.338 4.688-4.266s4.932-1.391 8.328-1.391h1.859c0.333 0 0.5 0.167 0.5 0.5v5.359c0 0.188 0.083 0.281 0.25 0.281z"></path>
</symbol>
<symbol id="icon-rounded--cross" viewBox="0 0 32 32">
<path d="M0 16.002c-0.002-8.566 6.824-15.996 15.993-16.002 9.171-0.005 16.037 7.437 16.007 16.055-0.028 8.548-6.852 15.947-16.004 15.945-9.166-0.003-15.996-7.429-15.996-15.998zM16.009 29.027c7.174 0.039 13.012-5.929 13.008-13.036s-5.85-13.034-13.025-13.029c-7.175 0.005-13.012 5.939-13.008 13.046s5.85 13.068 13.025 13.019z"></path>
<path d="M15.994 18.119c0 0 0 0 0 0-0.964 0.965-1.905 1.909-2.849 2.853-0.277 0.276-0.601 0.459-0.996 0.51-1.033 0.132-1.921-0.953-1.553-1.928 0.097-0.256 0.262-0.505 0.452-0.702 0.871-0.898 1.761-1.776 2.646-2.659 0.101-0.101 0.132-0.252 0.032-0.354-0.009-0.009-0.018-0.018-0.027-0.028-0.894-0.896-1.794-1.786-2.681-2.689-0.433-0.441-0.644-0.966-0.429-1.585 0.382-1.097 1.674-1.381 2.516-0.548 0.906 0.895 1.801 1.8 2.701 2.701 0.001 0.001 0.003 0.003 0.004 0.004 0.102 0.102 0.272 0.104 0.374 0.001 0.9-0.9 1.798-1.803 2.7-2.701 0.478-0.476 1.133-0.615 1.676-0.369 1.034 0.468 1.243 1.667 0.425 2.493-0.889 0.9-1.787 1.792-2.683 2.686-0.101 0.101-0.131 0.252-0.032 0.354 0.009 0.009 0.018 0.018 0.027 0.027 0.895 0.896 1.794 1.786 2.681 2.689 0.433 0.441 0.644 0.966 0.428 1.585-0.381 1.097-1.675 1.38-2.516 0.548-0.906-0.895-1.801-1.8-2.701-2.701-0.058-0.058-0.118-0.114-0.197-0.188-0-0 0-0.001 0-0z"></path>
</symbol>
<symbol id="icon-rounded--check" viewBox="0 0 32 32">
<path d="M0 15.978c-0.002-8.555 6.823-15.977 15.992-15.982 9.171-0.005 16.036 7.427 16.008 16.034-0.028 8.537-6.852 15.926-16.003 15.924-9.166-0.002-15.996-7.418-15.997-15.977zM15.994 28.987c7.174 0.048 13.018-5.907 13.021-13.005s-5.836-13.023-13.010-13.026-13.018 5.917-13.021 13.015c-0.003 7.098 5.836 13.058 13.010 13.016z"></path>
<path d="M14.042 17.892c-0 0-0-0-0-0 0.069-0.095 0.117-0.185 0.187-0.253 2.208-2.211 4.417-4.42 6.628-6.628 0.503-0.503 1.145-0.636 1.711-0.405 0.86 0.353 1.327 1.519 0.473 2.446-0.041 0.045-0.086 0.087-0.129 0.13-2.571 2.57-5.141 5.141-7.712 7.71-0.767 0.767-1.632 0.765-2.405-0.007-1.256-1.255-2.517-2.506-3.765-3.769-0.46-0.465-0.675-1.016-0.413-1.665 0.423-1.050 1.673-1.287 2.497-0.472 0.905 0.895 1.801 1.799 2.702 2.698 0.058 0.058 0.119 0.113 0.227 0.215 0 0 0 0-0 0z"></path>
</symbol>
<symbol id="icon-add" viewBox="0 0 33 32">
<path d="M16.519 31.232c-2.132 0-4.14-0.409-6.023-1.225-1.883-0.807-3.542-1.928-4.977-3.363s-2.561-3.089-3.378-4.962c-0.807-1.883-1.211-3.896-1.211-6.038 0-2.132 0.404-4.135 1.211-6.008 0.817-1.883 1.938-3.542 3.363-4.977 1.435-1.435 3.094-2.556 4.977-3.363 1.883-0.817 3.891-1.226 6.023-1.226s4.14 0.408 6.023 1.226c1.893 0.807 3.552 1.928 4.977 3.363 1.435 1.435 2.561 3.094 3.378 4.977 0.817 1.873 1.225 3.876 1.225 6.008 0 2.142-0.409 4.155-1.225 6.038-0.817 1.873-1.943 3.527-3.378 4.962-1.425 1.435-3.079 2.556-4.962 3.363-1.883 0.817-3.891 1.225-6.023 1.225zM16.519 27.81c1.684 0 3.258-0.314 4.723-0.942 1.475-0.628 2.77-1.495 3.886-2.601 1.116-1.116 1.988-2.406 2.616-3.871 0.628-1.475 0.942-3.059 0.942-4.753 0-1.684-0.319-3.258-0.957-4.723-0.628-1.475-1.5-2.77-2.616-3.886-1.106-1.116-2.396-1.988-3.871-2.615-1.465-0.628-3.044-0.942-4.738-0.942-1.684 0-3.263 0.314-4.738 0.942-1.465 0.628-2.755 1.5-3.871 2.615-1.106 1.116-1.973 2.411-2.601 3.886-0.618 1.465-0.927 3.039-0.927 4.723 0 1.694 0.309 3.278 0.927 4.753 0.628 1.465 1.5 2.755 2.615 3.871 1.116 1.106 2.406 1.973 3.871 2.601 1.475 0.628 3.054 0.942 4.738 0.942zM9.614 15.644c0-0.448 0.139-0.812 0.418-1.091 0.279-0.289 0.643-0.434 1.091-0.434h3.871v-3.871c0-0.438 0.14-0.797 0.418-1.076 0.289-0.289 0.648-0.433 1.076-0.433 0.448 0 0.812 0.139 1.091 0.418 0.289 0.279 0.434 0.643 0.434 1.091v3.871h3.886c0.438 0 0.797 0.145 1.076 0.434 0.279 0.279 0.419 0.643 0.419 1.091 0 0.429-0.14 0.787-0.419 1.076-0.279 0.279-0.638 0.419-1.076 0.419h-3.886v3.886c0 0.438-0.145 0.797-0.434 1.076-0.279 0.279-0.643 0.418-1.091 0.418-0.429 0-0.787-0.139-1.076-0.418-0.279-0.279-0.418-0.638-0.418-1.076v-3.886h-3.871c-0.438 0-0.802-0.14-1.091-0.419-0.279-0.289-0.418-0.648-0.418-1.076z"></path>
</symbol>
<symbol id="icon-out" viewBox="0 0 26 32">
<path d="M5.4 31.173c-1.486 0-2.622-0.389-3.406-1.167s-1.177-1.903-1.177-3.375v-13.094c0-1.472 0.392-2.597 1.177-3.375s1.92-1.167 3.406-1.167h3.823v3.083h-3.521c-0.583 0-1.031 0.149-1.344 0.448-0.306 0.299-0.458 0.753-0.458 1.365v12.385c0 0.618 0.153 1.073 0.458 1.365 0.313 0.299 0.76 0.448 1.344 0.448h14.937c0.583 0 1.028-0.149 1.333-0.448 0.313-0.292 0.469-0.747 0.469-1.365v-12.385c0-0.611-0.156-1.066-0.469-1.365-0.306-0.299-0.75-0.448-1.333-0.448h-3.521v-3.083h3.833c1.486 0 2.618 0.389 3.396 1.167 0.785 0.778 1.177 1.903 1.177 3.375v13.094c0 1.472-0.392 2.597-1.177 3.375-0.778 0.778-1.91 1.167-3.396 1.167h-15.552zM13.171 20.277c-0.389 0-0.719-0.135-0.99-0.406-0.271-0.278-0.406-0.601-0.406-0.969v-13.385l0.115-1.969-0.813 1.094-1.771 1.854c-0.243 0.271-0.549 0.406-0.917 0.406-0.326 0-0.611-0.108-0.854-0.323-0.236-0.222-0.354-0.507-0.354-0.854 0-0.174 0.031-0.326 0.094-0.458 0.063-0.139 0.156-0.271 0.281-0.396l4.521-4.365c0.181-0.174 0.361-0.295 0.542-0.365 0.181-0.076 0.365-0.115 0.552-0.115s0.372 0.038 0.552 0.115c0.181 0.069 0.361 0.191 0.542 0.365l4.521 4.365c0.118 0.125 0.208 0.257 0.271 0.396 0.069 0.132 0.104 0.285 0.104 0.458 0 0.347-0.125 0.632-0.375 0.854-0.243 0.215-0.524 0.323-0.844 0.323-0.361 0-0.667-0.135-0.917-0.406l-1.76-1.854-0.813-1.094 0.115 1.969v13.385c0 0.368-0.135 0.691-0.406 0.969-0.271 0.271-0.601 0.406-0.99 0.406z"></path>
</symbol>
<symbol id="icon-chat" viewBox="0 0 35 32">
<path d="M11.059 32.007c-0.66 0-1.178-0.211-1.554-0.633s-0.564-0.998-0.564-1.727v-3.454h-0.956c-1.359 0-2.556-0.284-3.592-0.852-1.029-0.568-1.831-1.378-2.406-2.429-0.576-1.059-0.864-2.322-0.864-3.788v-11.824c0-1.466 0.28-2.725 0.84-3.776 0.568-1.059 1.378-1.873 2.429-2.441 1.059-0.568 2.326-0.852 3.799-0.852h19.676c1.474 0 2.736 0.284 3.788 0.852 1.059 0.568 1.869 1.382 2.429 2.441 0.568 1.052 0.852 2.31 0.852 3.776v11.824c0 1.466-0.284 2.729-0.852 3.788-0.56 1.052-1.37 1.861-2.429 2.429-1.052 0.568-2.314 0.852-3.788 0.852h-8.992l-5.066 4.433c-0.56 0.484-1.044 0.833-1.451 1.048-0.407 0.222-0.84 0.334-1.301 0.334zM11.888 28.219l4.697-4.571c0.345-0.345 0.656-0.576 0.933-0.691 0.284-0.115 0.664-0.173 1.14-0.173h9.026c0.852 0 1.562-0.146 2.13-0.437s0.994-0.722 1.278-1.29c0.292-0.576 0.438-1.282 0.438-2.118v-11.456c0-0.844-0.146-1.55-0.438-2.118-0.284-0.576-0.71-1.005-1.278-1.289-0.568-0.292-1.278-0.438-2.13-0.438h-19.308c-0.852 0-1.562 0.146-2.13 0.438-0.568 0.284-0.998 0.714-1.289 1.289-0.284 0.568-0.426 1.274-0.426 2.118v11.456c0 0.837 0.142 1.543 0.426 2.118 0.292 0.568 0.721 0.998 1.289 1.29s1.278 0.437 2.13 0.437h2.245c0.414 0 0.729 0.096 0.944 0.288s0.322 0.518 0.322 0.979v4.168zM11.232 13.217c0-0.445 0.138-0.81 0.414-1.094 0.284-0.284 0.641-0.426 1.071-0.426h3.822v-3.822c0-0.43 0.142-0.783 0.426-1.059 0.284-0.284 0.641-0.426 1.071-0.426s0.787 0.142 1.071 0.426c0.292 0.276 0.438 0.629 0.438 1.059v3.822h3.834c0.422 0 0.771 0.142 1.048 0.426 0.284 0.284 0.426 0.649 0.426 1.094 0 0.422-0.142 0.775-0.426 1.059-0.276 0.276-0.626 0.414-1.048 0.414h-3.834v3.834c0 0.43-0.146 0.787-0.438 1.071-0.284 0.276-0.641 0.414-1.071 0.414s-0.787-0.138-1.071-0.414c-0.284-0.284-0.426-0.641-0.426-1.071v-3.834h-3.822c-0.43 0-0.787-0.138-1.071-0.414-0.276-0.284-0.414-0.637-0.414-1.059z"></path>
</symbol>
<symbol id="icon-copy" viewBox="0 0 26 32">
<path d="M6.461 7.692v-3.020c0-1.353 0.346-2.38 1.039-3.082 0.701-0.709 1.724-1.064 3.069-1.064h4.524c0.75 0 1.419 0.106 2.005 0.318s1.117 0.563 1.59 1.052l6.041 6.151c0.497 0.514 0.848 1.064 1.052 1.651s0.306 1.3 0.306 2.14v9.514c0 1.345-0.351 2.372-1.052 3.081-0.693 0.709-1.712 1.064-3.057 1.064h-2.482v-2.727h2.201c0.554 0 0.97-0.139 1.247-0.416 0.277-0.285 0.416-0.697 0.416-1.235v-9.88h-5.148c-0.783 0-1.39-0.212-1.822-0.636-0.424-0.424-0.636-1.031-0.636-1.822v-5.527h-4.903c-0.563 0-0.982 0.143-1.26 0.428-0.269 0.277-0.404 0.685-0.404 1.223v2.788h-2.727zM17.931 8.474c0 0.212 0.045 0.367 0.135 0.465 0.098 0.090 0.249 0.134 0.452 0.134h4.133l-4.72-4.793v4.194zM0.322 27.746v-16.679c0-1.345 0.346-2.368 1.039-3.069 0.701-0.709 1.724-1.064 3.069-1.064h4.219c0.774 0 1.418 0.082 1.932 0.245s1.027 0.51 1.541 1.039l6.542 6.628c0.351 0.359 0.616 0.705 0.795 1.039 0.188 0.334 0.314 0.705 0.379 1.113 0.073 0.399 0.11 0.88 0.11 1.443v9.306c0 1.353-0.351 2.38-1.052 3.081-0.701 0.709-1.72 1.064-3.057 1.064h-11.409c-1.345 0-2.368-0.355-3.069-1.064-0.693-0.701-1.039-1.728-1.039-3.081zM3.037 27.514c0 0.538 0.139 0.95 0.416 1.235s0.693 0.428 1.247 0.428h10.859c0.562 0 0.978-0.143 1.247-0.428 0.277-0.285 0.416-0.697 0.416-1.235v-8.645h-6.126c-0.946 0-1.655-0.232-2.128-0.697-0.465-0.465-0.697-1.174-0.697-2.128v-6.395h-3.558c-0.563 0-0.982 0.143-1.26 0.428s-0.416 0.693-0.416 1.223v16.215zM11.34 16.557h5.588l-6.334-6.42v5.674c0 0.261 0.057 0.452 0.171 0.575 0.122 0.114 0.314 0.171 0.575 0.171z"></path>
</symbol>
<symbol id="icon-thumbs--up" viewBox="0 0 30 32">
<path d="M0.728 21.271c0-1.607 0.281-3.063 0.844-4.366 0.563-1.313 1.335-2.357 2.317-3.134 0.991-0.777 2.112-1.165 3.362-1.165h2.237c0.696-0.857 1.344-1.679 1.942-2.464 0.607-0.795 1.174-1.571 1.701-2.33 0.536-0.759 1.036-1.518 1.5-2.277 0.464-0.768 0.902-1.545 1.312-2.33 0.464-0.884 0.964-1.527 1.5-1.929s1.161-0.603 1.875-0.603c0.67 0 1.263 0.156 1.781 0.469 0.518 0.304 0.924 0.723 1.219 1.259 0.304 0.527 0.455 1.138 0.455 1.835 0 0.661-0.107 1.339-0.321 2.036-0.205 0.696-0.446 1.375-0.723 2.036-0.277 0.652-0.527 1.246-0.75 1.781-0.214 0.527-0.339 0.951-0.375 1.272-0.009 0.116 0.022 0.201 0.094 0.254 0.080 0.054 0.179 0.080 0.295 0.080h4.795c0.723 0 1.37 0.17 1.942 0.509s1.022 0.799 1.353 1.379c0.339 0.58 0.509 1.232 0.509 1.955 0 0.848-0.188 1.576-0.563 2.183 0.125 0.25 0.219 0.527 0.281 0.83 0.071 0.304 0.107 0.612 0.107 0.924 0 0.491-0.080 0.96-0.241 1.406-0.152 0.438-0.379 0.826-0.683 1.165 0.179 0.428 0.268 0.902 0.268 1.42 0 1.188-0.464 2.161-1.393 2.92 0.036 0.134 0.062 0.268 0.080 0.402 0.027 0.134 0.040 0.272 0.040 0.415 0 0.884-0.299 1.665-0.897 2.344-0.589 0.679-1.384 1.138-2.384 1.38-0.482 0.125-1.080 0.214-1.795 0.268s-1.504 0.080-2.37 0.080h-1.848c-1.143 0-2.232-0.125-3.268-0.375-1.036-0.241-1.996-0.58-2.879-1.018h-4.299c-1 0-1.929-0.228-2.786-0.683-0.848-0.446-1.589-1.067-2.223-1.862-0.634-0.786-1.129-1.696-1.487-2.732-0.348-1.036-0.522-2.147-0.522-3.335zM9.246 21.15c0 1.446 0.375 2.728 1.125 3.844 0.759 1.107 1.817 1.978 3.174 2.612 1.366 0.634 2.955 0.951 4.768 0.951l1.5 0.013c0.848 0 1.58-0.022 2.196-0.067 0.625-0.045 1.125-0.112 1.5-0.201 0.411-0.107 0.71-0.259 0.897-0.455 0.196-0.187 0.295-0.406 0.295-0.656 0-0.134-0.018-0.254-0.054-0.362-0.027-0.107-0.103-0.312-0.228-0.616-0.098-0.25-0.112-0.5-0.040-0.75 0.071-0.259 0.232-0.464 0.482-0.616 0.741-0.393 1.112-0.862 1.112-1.406 0-0.179-0.031-0.344-0.094-0.496-0.062-0.161-0.161-0.362-0.295-0.603-0.143-0.304-0.178-0.603-0.107-0.897 0.080-0.295 0.25-0.536 0.509-0.723 0.241-0.179 0.42-0.37 0.536-0.576s0.174-0.428 0.174-0.67c0-0.205-0.040-0.393-0.121-0.562-0.071-0.179-0.192-0.388-0.362-0.63-0.187-0.196-0.272-0.438-0.254-0.723 0.027-0.286 0.147-0.531 0.362-0.737 0.196-0.205 0.339-0.397 0.429-0.576 0.089-0.188 0.134-0.402 0.134-0.643 0-0.339-0.116-0.621-0.348-0.844-0.232-0.232-0.514-0.348-0.844-0.348h-4.728c-0.902 0-1.647-0.246-2.237-0.737-0.58-0.5-0.87-1.161-0.87-1.982 0-0.545 0.107-1.138 0.321-1.781 0.223-0.652 0.478-1.308 0.763-1.969 0.295-0.661 0.553-1.295 0.777-1.902s0.335-1.134 0.335-1.58c0-0.277-0.067-0.491-0.201-0.643-0.134-0.161-0.313-0.241-0.536-0.241-0.188 0-0.353 0.058-0.496 0.174s-0.308 0.357-0.496 0.723c-0.652 1.321-1.375 2.563-2.17 3.723-0.786 1.152-1.576 2.232-2.37 3.241-0.786 1.009-1.509 1.96-2.17 2.853-0.589 0.786-1.058 1.527-1.406 2.223s-0.598 1.415-0.75 2.156c-0.143 0.732-0.214 1.558-0.214 2.478zM3.379 21.271c0 1.089 0.188 2.080 0.563 2.973s0.875 1.612 1.5 2.156 1.317 0.844 2.076 0.897c0.205 0 0.415 0 0.629 0s0.424 0 0.629 0c-0.732-0.839-1.295-1.777-1.688-2.813-0.384-1.036-0.576-2.143-0.576-3.321 0-1.125 0.103-2.161 0.308-3.107 0.214-0.955 0.54-1.884 0.978-2.786-0.152 0-0.304 0.004-0.455 0.013-0.143 0-0.286 0-0.429 0-0.643 0.045-1.232 0.339-1.768 0.884s-0.964 1.259-1.286 2.143-0.482 1.87-0.482 2.96z"></path>
</symbol>
<symbol id="icon-thumbs--down" viewBox="0 0 30 32">
<path d="M29.589 11.039c0 1.607-0.281 3.067-0.844 4.38-0.563 1.303-1.339 2.344-2.33 3.12-0.982 0.777-2.098 1.165-3.348 1.165h-2.223c-0.705 0.857-1.362 1.683-1.969 2.478-0.598 0.786-1.165 1.558-1.701 2.317-0.527 0.759-1.022 1.518-1.487 2.277s-0.906 1.536-1.326 2.33c-0.455 0.893-0.951 1.536-1.487 1.929-0.527 0.402-1.152 0.603-1.875 0.603-0.67 0-1.263-0.156-1.781-0.469-0.518-0.304-0.929-0.723-1.232-1.259-0.295-0.536-0.442-1.147-0.442-1.835 0-0.661 0.103-1.344 0.308-2.049 0.214-0.696 0.46-1.37 0.737-2.022s0.522-1.241 0.737-1.768c0.223-0.536 0.353-0.964 0.388-1.286 0.009-0.116-0.027-0.201-0.107-0.254-0.071-0.054-0.161-0.080-0.268-0.080h-4.808c-0.723 0-1.375-0.17-1.955-0.509-0.571-0.339-1.022-0.799-1.353-1.379s-0.496-1.237-0.496-1.969c0-0.839 0.188-1.563 0.563-2.17-0.125-0.25-0.223-0.527-0.295-0.83-0.071-0.313-0.107-0.621-0.107-0.924 0-0.491 0.080-0.955 0.241-1.393 0.161-0.446 0.393-0.839 0.696-1.179-0.179-0.429-0.268-0.902-0.268-1.42 0-1.188 0.464-2.165 1.393-2.933-0.036-0.125-0.067-0.254-0.094-0.388-0.018-0.134-0.027-0.272-0.027-0.415 0-0.893 0.295-1.674 0.884-2.344 0.598-0.679 1.397-1.138 2.397-1.379 0.482-0.125 1.080-0.214 1.795-0.268 0.714-0.063 1.504-0.094 2.371-0.094h1.848c1.143 0 2.228 0.125 3.255 0.375 1.036 0.25 2.004 0.594 2.906 1.031h4.286c1 0 1.924 0.223 2.772 0.67 0.857 0.446 1.603 1.067 2.237 1.862 0.634 0.786 1.125 1.701 1.473 2.746 0.357 1.036 0.536 2.147 0.536 3.335zM21.085 11.159c0-1.455-0.379-2.737-1.138-3.844s-1.821-1.978-3.188-2.612c-1.357-0.634-2.942-0.955-4.754-0.964h-1.5c-0.848-0.009-1.585 0.013-2.21 0.067-0.616 0.045-1.112 0.112-1.487 0.201-0.411 0.107-0.71 0.259-0.897 0.455-0.188 0.188-0.281 0.411-0.281 0.67-0.009 0.125 0 0.241 0.027 0.348 0.036 0.107 0.112 0.308 0.228 0.603 0.107 0.25 0.125 0.504 0.054 0.763s-0.232 0.46-0.482 0.603c-0.741 0.402-1.112 0.875-1.112 1.42 0 0.179 0.031 0.348 0.094 0.509 0.063 0.152 0.161 0.348 0.295 0.589 0.143 0.304 0.174 0.603 0.094 0.897-0.071 0.295-0.237 0.536-0.496 0.723-0.241 0.179-0.424 0.371-0.549 0.576-0.116 0.205-0.174 0.429-0.174 0.67 0 0.196 0.040 0.384 0.121 0.563 0.080 0.17 0.205 0.379 0.375 0.629 0.188 0.196 0.268 0.438 0.241 0.723-0.018 0.286-0.134 0.531-0.348 0.737-0.196 0.205-0.339 0.402-0.429 0.589-0.089 0.179-0.134 0.388-0.134 0.63 0 0.339 0.112 0.625 0.335 0.857 0.232 0.223 0.522 0.335 0.871 0.335h4.714c0.911 0 1.656 0.25 2.237 0.75 0.58 0.491 0.871 1.147 0.871 1.969 0 0.545-0.112 1.143-0.335 1.795-0.214 0.643-0.469 1.295-0.763 1.955-0.286 0.661-0.54 1.29-0.763 1.888-0.223 0.607-0.335 1.138-0.335 1.594 0 0.277 0.067 0.491 0.201 0.643 0.134 0.161 0.313 0.241 0.536 0.241 0.188 0 0.353-0.062 0.496-0.188 0.143-0.116 0.308-0.353 0.496-0.71 0.652-1.321 1.375-2.558 2.17-3.71 0.795-1.161 1.585-2.246 2.37-3.255s1.513-1.96 2.183-2.853c0.58-0.786 1.045-1.527 1.393-2.223s0.598-1.411 0.75-2.143c0.152-0.741 0.228-1.571 0.228-2.491zM26.937 11.039c0-1.089-0.187-2.080-0.562-2.973s-0.875-1.612-1.5-2.156c-0.625-0.545-1.312-0.844-2.062-0.897-0.214 0-0.428 0-0.643 0s-0.424 0-0.63 0c0.732 0.83 1.29 1.768 1.674 2.813 0.393 1.036 0.589 2.143 0.589 3.321 0 1.116-0.103 2.156-0.308 3.121-0.205 0.955-0.531 1.879-0.978 2.772 0.152 0 0.299 0 0.442 0 0.152-0.009 0.299-0.013 0.442-0.013 0.643-0.045 1.232-0.339 1.768-0.884s0.964-1.259 1.286-2.143c0.322-0.893 0.482-1.879 0.482-2.96z"></path>
</symbol>
<symbol id="icon-undo" viewBox="0 0 26 32">
<path d="M0.897 18.696c0-0.446 0.143-0.813 0.429-1.098s0.647-0.428 1.085-0.428c0.438 0 0.79 0.143 1.058 0.428s0.402 0.652 0.402 1.098c0 1.259 0.232 2.442 0.696 3.549 0.473 1.098 1.125 2.062 1.955 2.893s1.795 1.482 2.893 1.955c1.098 0.464 2.281 0.696 3.549 0.696 1.259 0 2.433-0.232 3.522-0.696 1.098-0.473 2.063-1.125 2.893-1.955s1.478-1.795 1.942-2.893c0.473-1.107 0.71-2.29 0.71-3.549 0-1.277-0.232-2.464-0.696-3.562-0.455-1.107-1.094-2.076-1.915-2.906-0.821-0.839-1.781-1.491-2.879-1.955-1.089-0.473-2.259-0.71-3.509-0.71-0.393 0-0.768 0.018-1.125 0.054-0.348 0.027-0.67 0.071-0.964 0.134l3.362 3.348c0.134 0.134 0.237 0.281 0.308 0.442s0.107 0.344 0.107 0.549c0 0.402-0.138 0.746-0.415 1.031-0.277 0.277-0.621 0.415-1.031 0.415s-0.75-0.134-1.018-0.402l-5.491-5.545c-0.152-0.152-0.268-0.317-0.348-0.496-0.071-0.188-0.107-0.384-0.107-0.589 0-0.411 0.152-0.772 0.455-1.085l5.491-5.571c0.268-0.286 0.612-0.429 1.031-0.429 0.402 0 0.741 0.143 1.018 0.429s0.415 0.634 0.415 1.045c0 0.196-0.036 0.379-0.107 0.549-0.071 0.161-0.17 0.308-0.295 0.442l-3 2.946c0.259-0.045 0.531-0.080 0.817-0.107 0.295-0.027 0.594-0.040 0.897-0.040 1.661 0 3.214 0.308 4.661 0.924 1.455 0.616 2.728 1.473 3.817 2.571 1.098 1.098 1.955 2.375 2.571 3.83 0.625 1.455 0.938 3.018 0.938 4.687 0 1.679-0.313 3.25-0.938 4.714-0.625 1.455-1.491 2.737-2.598 3.844-1.098 1.098-2.38 1.96-3.844 2.585-1.455 0.625-3.013 0.938-4.674 0.938-1.67 0-3.237-0.313-4.701-0.938-1.455-0.625-2.737-1.487-3.844-2.585-1.098-1.107-1.96-2.388-2.585-3.844-0.625-1.464-0.938-3.036-0.938-4.714z"></path>
</symbol>
<symbol id="icon-audio-record" viewBox="0 0 28 32">
<path d="M2.153 21.444c-0.398 0-0.736-0.139-1.014-0.417-0.269-0.278-0.403-0.616-0.403-1.014v-6.75c0-0.398 0.134-0.736 0.403-1.014 0.278-0.287 0.616-0.431 1.014-0.431s0.736 0.144 1.014 0.431c0.287 0.278 0.431 0.616 0.431 1.014v6.75c0 0.398-0.144 0.736-0.431 1.014-0.278 0.278-0.616 0.417-1.014 0.417zM7.125 26.903c-0.398 0-0.736-0.139-1.014-0.417-0.269-0.278-0.403-0.616-0.403-1.014v-17.667c0-0.407 0.134-0.75 0.403-1.028 0.278-0.278 0.616-0.417 1.014-0.417 0.407 0 0.75 0.139 1.028 0.417s0.417 0.62 0.417 1.028v17.667c0 0.398-0.139 0.736-0.417 1.014s-0.62 0.417-1.028 0.417zM12.097 31.958c-0.398 0-0.736-0.139-1.014-0.417-0.269-0.278-0.403-0.616-0.403-1.014v-27.778c0-0.398 0.134-0.736 0.403-1.014 0.278-0.278 0.616-0.417 1.014-0.417 0.407 0 0.75 0.139 1.028 0.417s0.417 0.616 0.417 1.014v27.778c0 0.398-0.139 0.736-0.417 1.014s-0.62 0.417-1.028 0.417zM17.069 24.917c-0.398 0-0.736-0.139-1.014-0.417-0.268-0.278-0.403-0.616-0.403-1.014v-13.694c0-0.398 0.134-0.736 0.403-1.014 0.278-0.287 0.616-0.431 1.014-0.431s0.736 0.144 1.014 0.431c0.287 0.278 0.431 0.616 0.431 1.014v13.694c0 0.398-0.144 0.736-0.431 1.014-0.278 0.278-0.616 0.417-1.014 0.417zM22.055 28.93c-0.407 0-0.75-0.139-1.028-0.417-0.268-0.278-0.403-0.616-0.403-1.014v-21.722c0-0.398 0.134-0.736 0.403-1.014 0.278-0.278 0.62-0.417 1.028-0.417 0.398 0 0.736 0.139 1.014 0.417s0.417 0.616 0.417 1.014v21.722c0 0.398-0.139 0.736-0.417 1.014s-0.616 0.417-1.014 0.417zM27.014 22.347c-0.398 0-0.736-0.139-1.014-0.417-0.268-0.278-0.403-0.611-0.403-1v-8.583c0-0.389 0.134-0.722 0.403-1 0.278-0.287 0.616-0.431 1.014-0.431 0.407 0 0.75 0.144 1.028 0.431 0.278 0.278 0.417 0.611 0.417 1v8.583c0 0.389-0.139 0.722-0.417 1s-0.62 0.417-1.028 0.417z"></path>
</symbol>
</defs>
</svg>
