<svg aria-hidden="true" style="position: absolute; width: 0; height: 0; overflow: hidden;" version="1.1" xmlns="http://www.w3.org/2000/svg" xmlns:xlink="http://www.w3.org/1999/xlink">
<defs>
<symbol id="icon-menu-2" viewBox="0 0 53 32">
<path d="M2.614 30.17c-0.696 0-1.29-0.259-1.783-0.778s-0.74-1.12-0.74-1.802c0-0.696 0.24-1.296 0.721-1.802 0.493-0.506 1.094-0.759 1.802-0.759h45.763c0.708 0 1.303 0.253 1.784 0.759 0.493 0.494 0.74 1.094 0.74 1.802 0 0.696-0.247 1.303-0.74 1.822-0.481 0.506-1.075 0.759-1.784 0.759h-45.763zM2.614 18.615c-0.696 0-1.29-0.259-1.783-0.778s-0.74-1.119-0.74-1.802c0-0.696 0.24-1.296 0.721-1.802 0.493-0.506 1.094-0.759 1.802-0.759h45.763c0.708 0 1.303 0.253 1.784 0.759 0.493 0.493 0.74 1.094 0.74 1.802 0 0.696-0.247 1.303-0.74 1.821-0.481 0.506-1.075 0.759-1.784 0.759h-45.763zM2.614 7.060c-0.696 0-1.29-0.253-1.783-0.759-0.493-0.519-0.74-1.119-0.74-1.802 0-0.696 0.24-1.296 0.721-1.802 0.493-0.519 1.094-0.778 1.802-0.778h45.763c0.708 0 1.303 0.253 1.784 0.759 0.493 0.506 0.74 1.113 0.74 1.821 0 0.683-0.247 1.284-0.74 1.802-0.481 0.506-1.075 0.759-1.784 0.759h-45.763z"></path>
</symbol>
<symbol id="icon-out" viewBox="0 0 26 32">
<path d="M5.4 31.173c-1.486 0-2.622-0.389-3.406-1.167s-1.177-1.903-1.177-3.375v-13.094c0-1.472 0.392-2.597 1.177-3.375s1.92-1.167 3.406-1.167h3.823v3.083h-3.521c-0.583 0-1.031 0.149-1.344 0.448-0.306 0.299-0.458 0.753-0.458 1.365v12.385c0 0.618 0.153 1.073 0.458 1.365 0.313 0.299 0.76 0.448 1.344 0.448h14.937c0.583 0 1.028-0.149 1.333-0.448 0.313-0.292 0.469-0.747 0.469-1.365v-12.385c0-0.611-0.156-1.066-0.469-1.365-0.306-0.299-0.75-0.448-1.333-0.448h-3.521v-3.083h3.833c1.486 0 2.618 0.389 3.396 1.167 0.785 0.778 1.177 1.903 1.177 3.375v13.094c0 1.472-0.392 2.597-1.177 3.375-0.778 0.778-1.91 1.167-3.396 1.167h-15.552zM13.171 20.277c-0.389 0-0.719-0.135-0.99-0.406-0.271-0.278-0.406-0.601-0.406-0.969v-13.385l0.115-1.969-0.813 1.094-1.771 1.854c-0.243 0.271-0.549 0.406-0.917 0.406-0.326 0-0.611-0.108-0.854-0.323-0.236-0.222-0.354-0.507-0.354-0.854 0-0.174 0.031-0.326 0.094-0.458 0.063-0.139 0.156-0.271 0.281-0.396l4.521-4.365c0.181-0.174 0.361-0.295 0.542-0.365 0.181-0.076 0.365-0.115 0.552-0.115s0.372 0.038 0.552 0.115c0.181 0.069 0.361 0.191 0.542 0.365l4.521 4.365c0.118 0.125 0.208 0.257 0.271 0.396 0.069 0.132 0.104 0.285 0.104 0.458 0 0.347-0.125 0.632-0.375 0.854-0.243 0.215-0.524 0.323-0.844 0.323-0.361 0-0.667-0.135-0.917-0.406l-1.76-1.854-0.813-1.094 0.115 1.969v13.385c0 0.368-0.135 0.691-0.406 0.969-0.271 0.271-0.601 0.406-0.99 0.406z"></path>
</symbol>
<symbol id="icon-chat" viewBox="0 0 35 32">
<path d="M11.059 32.007c-0.66 0-1.178-0.211-1.554-0.633s-0.564-0.998-0.564-1.727v-3.454h-0.956c-1.359 0-2.556-0.284-3.592-0.852-1.029-0.568-1.831-1.378-2.406-2.429-0.576-1.059-0.864-2.322-0.864-3.788v-11.824c0-1.466 0.28-2.725 0.84-3.776 0.568-1.059 1.378-1.873 2.429-2.441 1.059-0.568 2.326-0.852 3.799-0.852h19.676c1.474 0 2.736 0.284 3.788 0.852 1.059 0.568 1.869 1.382 2.429 2.441 0.568 1.052 0.852 2.31 0.852 3.776v11.824c0 1.466-0.284 2.729-0.852 3.788-0.56 1.052-1.37 1.861-2.429 2.429-1.052 0.568-2.314 0.852-3.788 0.852h-8.992l-5.066 4.433c-0.56 0.484-1.044 0.833-1.451 1.048-0.407 0.222-0.84 0.334-1.301 0.334zM11.888 28.219l4.697-4.571c0.345-0.345 0.656-0.576 0.933-0.691 0.284-0.115 0.664-0.173 1.14-0.173h9.026c0.852 0 1.562-0.146 2.13-0.437s0.994-0.722 1.278-1.29c0.292-0.576 0.438-1.282 0.438-2.118v-11.456c0-0.844-0.146-1.55-0.438-2.118-0.284-0.576-0.71-1.005-1.278-1.289-0.568-0.292-1.278-0.438-2.13-0.438h-19.308c-0.852 0-1.562 0.146-2.13 0.438-0.568 0.284-0.998 0.714-1.289 1.289-0.284 0.568-0.426 1.274-0.426 2.118v11.456c0 0.837 0.142 1.543 0.426 2.118 0.292 0.568 0.721 0.998 1.289 1.29s1.278 0.437 2.13 0.437h2.245c0.414 0 0.729 0.096 0.944 0.288s0.322 0.518 0.322 0.979v4.168zM11.232 13.217c0-0.445 0.138-0.81 0.414-1.094 0.284-0.284 0.641-0.426 1.071-0.426h3.822v-3.822c0-0.43 0.142-0.783 0.426-1.059 0.284-0.284 0.641-0.426 1.071-0.426s0.787 0.142 1.071 0.426c0.292 0.276 0.438 0.629 0.438 1.059v3.822h3.834c0.422 0 0.771 0.142 1.048 0.426 0.284 0.284 0.426 0.649 0.426 1.094 0 0.422-0.142 0.775-0.426 1.059-0.276 0.276-0.626 0.414-1.048 0.414h-3.834v3.834c0 0.43-0.146 0.787-0.438 1.071-0.284 0.276-0.641 0.414-1.071 0.414s-0.787-0.138-1.071-0.414c-0.284-0.284-0.426-0.641-0.426-1.071v-3.834h-3.822c-0.43 0-0.787-0.138-1.071-0.414-0.276-0.284-0.414-0.637-0.414-1.059z"></path>
</symbol>
<symbol id="icon-thumbs-down" viewBox="0 0 30 32">
<path d="M29.589 11.039c0 1.607-0.281 3.067-0.844 4.38-0.563 1.303-1.339 2.344-2.33 3.12-0.982 0.777-2.098 1.165-3.348 1.165h-2.223c-0.705 0.857-1.362 1.683-1.969 2.478-0.598 0.786-1.165 1.558-1.701 2.317-0.527 0.759-1.022 1.518-1.487 2.277s-0.906 1.536-1.326 2.33c-0.455 0.893-0.951 1.536-1.487 1.929-0.527 0.402-1.152 0.603-1.875 0.603-0.67 0-1.263-0.156-1.781-0.469-0.518-0.304-0.929-0.723-1.232-1.259-0.295-0.536-0.442-1.147-0.442-1.835 0-0.661 0.103-1.344 0.308-2.049 0.214-0.696 0.46-1.37 0.737-2.022s0.522-1.241 0.737-1.768c0.223-0.536 0.353-0.964 0.388-1.286 0.009-0.116-0.027-0.201-0.107-0.254-0.071-0.054-0.161-0.080-0.268-0.080h-4.808c-0.723 0-1.375-0.17-1.955-0.509-0.571-0.339-1.022-0.799-1.353-1.379s-0.496-1.237-0.496-1.969c0-0.839 0.188-1.563 0.563-2.17-0.125-0.25-0.223-0.527-0.295-0.83-0.071-0.313-0.107-0.621-0.107-0.924 0-0.491 0.080-0.955 0.241-1.393 0.161-0.446 0.393-0.839 0.696-1.179-0.179-0.429-0.268-0.902-0.268-1.42 0-1.188 0.464-2.165 1.393-2.933-0.036-0.125-0.067-0.254-0.094-0.388-0.018-0.134-0.027-0.272-0.027-0.415 0-0.893 0.295-1.674 0.884-2.344 0.598-0.679 1.397-1.138 2.397-1.379 0.482-0.125 1.080-0.214 1.795-0.268 0.714-0.063 1.504-0.094 2.371-0.094h1.848c1.143 0 2.228 0.125 3.255 0.375 1.036 0.25 2.004 0.594 2.906 1.031h4.286c1 0 1.924 0.223 2.772 0.67 0.857 0.446 1.603 1.067 2.237 1.862 0.634 0.786 1.125 1.701 1.473 2.746 0.357 1.036 0.536 2.147 0.536 3.335zM21.085 11.159c0-1.455-0.379-2.737-1.138-3.844s-1.821-1.978-3.188-2.612c-1.357-0.634-2.942-0.955-4.754-0.964h-1.5c-0.848-0.009-1.585 0.013-2.21 0.067-0.616 0.045-1.112 0.112-1.487 0.201-0.411 0.107-0.71 0.259-0.897 0.455-0.188 0.188-0.281 0.411-0.281 0.67-0.009 0.125 0 0.241 0.027 0.348 0.036 0.107 0.112 0.308 0.228 0.603 0.107 0.25 0.125 0.504 0.054 0.763s-0.232 0.46-0.482 0.603c-0.741 0.402-1.112 0.875-1.112 1.42 0 0.179 0.031 0.348 0.094 0.509 0.063 0.152 0.161 0.348 0.295 0.589 0.143 0.304 0.174 0.603 0.094 0.897-0.071 0.295-0.237 0.536-0.496 0.723-0.241 0.179-0.424 0.371-0.549 0.576-0.116 0.205-0.174 0.429-0.174 0.67 0 0.196 0.040 0.384 0.121 0.563 0.080 0.17 0.205 0.379 0.375 0.629 0.188 0.196 0.268 0.438 0.241 0.723-0.018 0.286-0.134 0.531-0.348 0.737-0.196 0.205-0.339 0.402-0.429 0.589-0.089 0.179-0.134 0.388-0.134 0.63 0 0.339 0.112 0.625 0.335 0.857 0.232 0.223 0.522 0.335 0.871 0.335h4.714c0.911 0 1.656 0.25 2.237 0.75 0.58 0.491 0.871 1.147 0.871 1.969 0 0.545-0.112 1.143-0.335 1.795-0.214 0.643-0.469 1.295-0.763 1.955-0.286 0.661-0.54 1.29-0.763 1.888-0.223 0.607-0.335 1.138-0.335 1.594 0 0.277 0.067 0.491 0.201 0.643 0.134 0.161 0.313 0.241 0.536 0.241 0.188 0 0.353-0.062 0.496-0.188 0.143-0.116 0.308-0.353 0.496-0.71 0.652-1.321 1.375-2.558 2.17-3.71 0.795-1.161 1.585-2.246 2.37-3.255s1.513-1.96 2.183-2.853c0.58-0.786 1.045-1.527 1.393-2.223s0.598-1.411 0.75-2.143c0.152-0.741 0.228-1.571 0.228-2.491zM26.937 11.039c0-1.089-0.187-2.080-0.562-2.973s-0.875-1.612-1.5-2.156c-0.625-0.545-1.312-0.844-2.062-0.897-0.214 0-0.428 0-0.643 0s-0.424 0-0.63 0c0.732 0.83 1.29 1.768 1.674 2.813 0.393 1.036 0.589 2.143 0.589 3.321 0 1.116-0.103 2.156-0.308 3.121-0.205 0.955-0.531 1.879-0.978 2.772 0.152 0 0.299 0 0.442 0 0.152-0.009 0.299-0.013 0.442-0.013 0.643-0.045 1.232-0.339 1.768-0.884s0.964-1.259 1.286-2.143c0.322-0.893 0.482-1.879 0.482-2.96z"></path>
</symbol>
<symbol id="icon-thumbs-up" viewBox="0 0 30 32">
<path d="M0.728 21.271c0-1.607 0.281-3.063 0.844-4.366 0.563-1.313 1.335-2.357 2.317-3.134 0.991-0.777 2.112-1.165 3.362-1.165h2.237c0.696-0.857 1.344-1.679 1.942-2.464 0.607-0.795 1.174-1.571 1.701-2.33 0.536-0.759 1.036-1.518 1.5-2.277 0.464-0.768 0.902-1.545 1.312-2.33 0.464-0.884 0.964-1.527 1.5-1.929s1.161-0.603 1.875-0.603c0.67 0 1.263 0.156 1.781 0.469 0.518 0.304 0.924 0.723 1.219 1.259 0.304 0.527 0.455 1.138 0.455 1.835 0 0.661-0.107 1.339-0.321 2.036-0.205 0.696-0.446 1.375-0.723 2.036-0.277 0.652-0.527 1.246-0.75 1.781-0.214 0.527-0.339 0.951-0.375 1.272-0.009 0.116 0.022 0.201 0.094 0.254 0.080 0.054 0.179 0.080 0.295 0.080h4.795c0.723 0 1.37 0.17 1.942 0.509s1.022 0.799 1.353 1.379c0.339 0.58 0.509 1.232 0.509 1.955 0 0.848-0.188 1.576-0.563 2.183 0.125 0.25 0.219 0.527 0.281 0.83 0.071 0.304 0.107 0.612 0.107 0.924 0 0.491-0.080 0.96-0.241 1.406-0.152 0.438-0.379 0.826-0.683 1.165 0.179 0.428 0.268 0.902 0.268 1.42 0 1.188-0.464 2.161-1.393 2.92 0.036 0.134 0.062 0.268 0.080 0.402 0.027 0.134 0.040 0.272 0.040 0.415 0 0.884-0.299 1.665-0.897 2.344-0.589 0.679-1.384 1.138-2.384 1.38-0.482 0.125-1.080 0.214-1.795 0.268s-1.504 0.080-2.37 0.080h-1.848c-1.143 0-2.232-0.125-3.268-0.375-1.036-0.241-1.996-0.58-2.879-1.018h-4.299c-1 0-1.929-0.228-2.786-0.683-0.848-0.446-1.589-1.067-2.223-1.862-0.634-0.786-1.129-1.696-1.487-2.732-0.348-1.036-0.522-2.147-0.522-3.335zM9.246 21.15c0 1.446 0.375 2.728 1.125 3.844 0.759 1.107 1.817 1.978 3.174 2.612 1.366 0.634 2.955 0.951 4.768 0.951l1.5 0.013c0.848 0 1.58-0.022 2.196-0.067 0.625-0.045 1.125-0.112 1.5-0.201 0.411-0.107 0.71-0.259 0.897-0.455 0.196-0.187 0.295-0.406 0.295-0.656 0-0.134-0.018-0.254-0.054-0.362-0.027-0.107-0.103-0.312-0.228-0.616-0.098-0.25-0.112-0.5-0.040-0.75 0.071-0.259 0.232-0.464 0.482-0.616 0.741-0.393 1.112-0.862 1.112-1.406 0-0.179-0.031-0.344-0.094-0.496-0.062-0.161-0.161-0.362-0.295-0.603-0.143-0.304-0.178-0.603-0.107-0.897 0.080-0.295 0.25-0.536 0.509-0.723 0.241-0.179 0.42-0.37 0.536-0.576s0.174-0.428 0.174-0.67c0-0.205-0.040-0.393-0.121-0.562-0.071-0.179-0.192-0.388-0.362-0.63-0.187-0.196-0.272-0.438-0.254-0.723 0.027-0.286 0.147-0.531 0.362-0.737 0.196-0.205 0.339-0.397 0.429-0.576 0.089-0.188 0.134-0.402 0.134-0.643 0-0.339-0.116-0.621-0.348-0.844-0.232-0.232-0.514-0.348-0.844-0.348h-4.728c-0.902 0-1.647-0.246-2.237-0.737-0.58-0.5-0.87-1.161-0.87-1.982 0-0.545 0.107-1.138 0.321-1.781 0.223-0.652 0.478-1.308 0.763-1.969 0.295-0.661 0.553-1.295 0.777-1.902s0.335-1.134 0.335-1.58c0-0.277-0.067-0.491-0.201-0.643-0.134-0.161-0.313-0.241-0.536-0.241-0.188 0-0.353 0.058-0.496 0.174s-0.308 0.357-0.496 0.723c-0.652 1.321-1.375 2.563-2.17 3.723-0.786 1.152-1.576 2.232-2.37 3.241-0.786 1.009-1.509 1.96-2.17 2.853-0.589 0.786-1.058 1.527-1.406 2.223s-0.598 1.415-0.75 2.156c-0.143 0.732-0.214 1.558-0.214 2.478zM3.379 21.271c0 1.089 0.188 2.080 0.563 2.973s0.875 1.612 1.5 2.156 1.317 0.844 2.076 0.897c0.205 0 0.415 0 0.629 0s0.424 0 0.629 0c-0.732-0.839-1.295-1.777-1.688-2.813-0.384-1.036-0.576-2.143-0.576-3.321 0-1.125 0.103-2.161 0.308-3.107 0.214-0.955 0.54-1.884 0.978-2.786-0.152 0-0.304 0.004-0.455 0.013-0.143 0-0.286 0-0.429 0-0.643 0.045-1.232 0.339-1.768 0.884s-0.964 1.259-1.286 2.143-0.482 1.87-0.482 2.96z"></path>
</symbol>
<symbol id="icon-copy" viewBox="0 0 26 32">
<path d="M6.461 7.692v-3.020c0-1.353 0.346-2.38 1.039-3.082 0.701-0.709 1.724-1.064 3.069-1.064h4.524c0.75 0 1.419 0.106 2.005 0.318s1.117 0.563 1.59 1.052l6.041 6.151c0.497 0.514 0.848 1.064 1.052 1.651s0.306 1.3 0.306 2.14v9.514c0 1.345-0.351 2.372-1.052 3.081-0.693 0.709-1.712 1.064-3.057 1.064h-2.482v-2.727h2.201c0.554 0 0.97-0.139 1.247-0.416 0.277-0.285 0.416-0.697 0.416-1.235v-9.88h-5.148c-0.783 0-1.39-0.212-1.822-0.636-0.424-0.424-0.636-1.031-0.636-1.822v-5.527h-4.903c-0.563 0-0.982 0.143-1.26 0.428-0.269 0.277-0.404 0.685-0.404 1.223v2.788h-2.727zM17.931 8.474c0 0.212 0.045 0.367 0.135 0.465 0.098 0.090 0.249 0.134 0.452 0.134h4.133l-4.72-4.793v4.194zM0.322 27.746v-16.679c0-1.345 0.346-2.368 1.039-3.069 0.701-0.709 1.724-1.064 3.069-1.064h4.219c0.774 0 1.418 0.082 1.932 0.245s1.027 0.51 1.541 1.039l6.542 6.628c0.351 0.359 0.616 0.705 0.795 1.039 0.188 0.334 0.314 0.705 0.379 1.113 0.073 0.399 0.11 0.88 0.11 1.443v9.306c0 1.353-0.351 2.38-1.052 3.081-0.701 0.709-1.72 1.064-3.057 1.064h-11.409c-1.345 0-2.368-0.355-3.069-1.064-0.693-0.701-1.039-1.728-1.039-3.081zM3.037 27.514c0 0.538 0.139 0.95 0.416 1.235s0.693 0.428 1.247 0.428h10.859c0.562 0 0.978-0.143 1.247-0.428 0.277-0.285 0.416-0.697 0.416-1.235v-8.645h-6.126c-0.946 0-1.655-0.232-2.128-0.697-0.465-0.465-0.697-1.174-0.697-2.128v-6.395h-3.558c-0.563 0-0.982 0.143-1.26 0.428s-0.416 0.693-0.416 1.223v16.215zM11.34 16.557h5.588l-6.334-6.42v5.674c0 0.261 0.057 0.452 0.171 0.575 0.122 0.114 0.314 0.171 0.575 0.171z"></path>
</symbol>
<symbol id="icon-add" viewBox="0 0 33 32">
<path d="M16.519 31.232c-2.132 0-4.14-0.409-6.023-1.225-1.883-0.807-3.542-1.928-4.977-3.363s-2.561-3.089-3.378-4.962c-0.807-1.883-1.211-3.896-1.211-6.038 0-2.132 0.404-4.135 1.211-6.008 0.817-1.883 1.938-3.542 3.363-4.977 1.435-1.435 3.094-2.556 4.977-3.363 1.883-0.817 3.891-1.226 6.023-1.226s4.14 0.408 6.023 1.226c1.893 0.807 3.552 1.928 4.977 3.363 1.435 1.435 2.561 3.094 3.378 4.977 0.817 1.873 1.225 3.876 1.225 6.008 0 2.142-0.409 4.155-1.225 6.038-0.817 1.873-1.943 3.527-3.378 4.962-1.425 1.435-3.079 2.556-4.962 3.363-1.883 0.817-3.891 1.225-6.023 1.225zM16.519 27.81c1.684 0 3.258-0.314 4.723-0.942 1.475-0.628 2.77-1.495 3.886-2.601 1.116-1.116 1.988-2.406 2.616-3.871 0.628-1.475 0.942-3.059 0.942-4.753 0-1.684-0.319-3.258-0.957-4.723-0.628-1.475-1.5-2.77-2.616-3.886-1.106-1.116-2.396-1.988-3.871-2.615-1.465-0.628-3.044-0.942-4.738-0.942-1.684 0-3.263 0.314-4.738 0.942-1.465 0.628-2.755 1.5-3.871 2.615-1.106 1.116-1.973 2.411-2.601 3.886-0.618 1.465-0.927 3.039-0.927 4.723 0 1.694 0.309 3.278 0.927 4.753 0.628 1.465 1.5 2.755 2.615 3.871 1.116 1.106 2.406 1.973 3.871 2.601 1.475 0.628 3.054 0.942 4.738 0.942zM9.614 15.644c0-0.448 0.139-0.812 0.418-1.091 0.279-0.289 0.643-0.434 1.091-0.434h3.871v-3.871c0-0.438 0.14-0.797 0.418-1.076 0.289-0.289 0.648-0.433 1.076-0.433 0.448 0 0.812 0.139 1.091 0.418 0.289 0.279 0.434 0.643 0.434 1.091v3.871h3.886c0.438 0 0.797 0.145 1.076 0.434 0.279 0.279 0.419 0.643 0.419 1.091 0 0.429-0.14 0.787-0.419 1.076-0.279 0.279-0.638 0.419-1.076 0.419h-3.886v3.886c0 0.438-0.145 0.797-0.434 1.076-0.279 0.279-0.643 0.418-1.091 0.418-0.429 0-0.787-0.139-1.076-0.418-0.279-0.279-0.418-0.638-0.418-1.076v-3.886h-3.871c-0.438 0-0.802-0.14-1.091-0.419-0.279-0.289-0.418-0.648-0.418-1.076z"></path>
</symbol>
<symbol id="icon-bookmark" viewBox="0 0 20 32">
<path d="M2.216 31.195c-0.589 0-1.063-0.192-1.42-0.576-0.348-0.384-0.522-0.902-0.522-1.554v-23.437c0-1.375 0.357-2.424 1.071-3.147s1.75-1.085 3.107-1.085h10.781c1.357 0 2.393 0.362 3.107 1.085 0.723 0.723 1.085 1.772 1.085 3.147v23.437c0 0.652-0.178 1.17-0.536 1.554-0.348 0.384-0.822 0.576-1.42 0.576-0.393 0-0.75-0.107-1.071-0.322-0.313-0.214-0.75-0.594-1.312-1.138l-5.129-5.089c-0.071-0.080-0.147-0.080-0.228 0l-5.116 5.089c-0.563 0.545-1.009 0.924-1.339 1.138-0.321 0.214-0.674 0.322-1.058 0.322zM3.622 26.307l5.223-5.076c0.33-0.313 0.665-0.469 1.004-0.469s0.67 0.156 0.991 0.469l5.237 5.076c0.089 0.080 0.174 0.107 0.254 0.080 0.089-0.018 0.134-0.089 0.134-0.214v-20.317c0-0.509-0.125-0.884-0.375-1.125-0.25-0.25-0.625-0.375-1.125-0.375h-10.219c-0.518 0-0.902 0.125-1.152 0.375-0.241 0.241-0.362 0.616-0.362 1.125v20.317c0 0.125 0.040 0.196 0.121 0.214 0.080 0.027 0.17 0 0.268-0.080z"></path>
</symbol>
<symbol id="icon-undo" viewBox="0 0 26 32">
<path d="M0.897 18.696c0-0.446 0.143-0.813 0.429-1.098s0.647-0.428 1.085-0.428c0.438 0 0.79 0.143 1.058 0.428s0.402 0.652 0.402 1.098c0 1.259 0.232 2.442 0.696 3.549 0.473 1.098 1.125 2.062 1.955 2.893s1.795 1.482 2.893 1.955c1.098 0.464 2.281 0.696 3.549 0.696 1.259 0 2.433-0.232 3.522-0.696 1.098-0.473 2.063-1.125 2.893-1.955s1.478-1.795 1.942-2.893c0.473-1.107 0.71-2.29 0.71-3.549 0-1.277-0.232-2.464-0.696-3.562-0.455-1.107-1.094-2.076-1.915-2.906-0.821-0.839-1.781-1.491-2.879-1.955-1.089-0.473-2.259-0.71-3.509-0.71-0.393 0-0.768 0.018-1.125 0.054-0.348 0.027-0.67 0.071-0.964 0.134l3.362 3.348c0.134 0.134 0.237 0.281 0.308 0.442s0.107 0.344 0.107 0.549c0 0.402-0.138 0.746-0.415 1.031-0.277 0.277-0.621 0.415-1.031 0.415s-0.75-0.134-1.018-0.402l-5.491-5.545c-0.152-0.152-0.268-0.317-0.348-0.496-0.071-0.188-0.107-0.384-0.107-0.589 0-0.411 0.152-0.772 0.455-1.085l5.491-5.571c0.268-0.286 0.612-0.429 1.031-0.429 0.402 0 0.741 0.143 1.018 0.429s0.415 0.634 0.415 1.045c0 0.196-0.036 0.379-0.107 0.549-0.071 0.161-0.17 0.308-0.295 0.442l-3 2.946c0.259-0.045 0.531-0.080 0.817-0.107 0.295-0.027 0.594-0.040 0.897-0.040 1.661 0 3.214 0.308 4.661 0.924 1.455 0.616 2.728 1.473 3.817 2.571 1.098 1.098 1.955 2.375 2.571 3.83 0.625 1.455 0.938 3.018 0.938 4.687 0 1.679-0.313 3.25-0.938 4.714-0.625 1.455-1.491 2.737-2.598 3.844-1.098 1.098-2.38 1.96-3.844 2.585-1.455 0.625-3.013 0.938-4.674 0.938-1.67 0-3.237-0.313-4.701-0.938-1.455-0.625-2.737-1.487-3.844-2.585-1.098-1.107-1.96-2.388-2.585-3.844-0.625-1.464-0.938-3.036-0.938-4.714z"></path>
</symbol>
<symbol id="icon-audio-record" viewBox="0 0 28 32">
<path d="M2.153 21.444c-0.398 0-0.736-0.139-1.014-0.417-0.269-0.278-0.403-0.616-0.403-1.014v-6.75c0-0.398 0.134-0.736 0.403-1.014 0.278-0.287 0.616-0.431 1.014-0.431s0.736 0.144 1.014 0.431c0.287 0.278 0.431 0.616 0.431 1.014v6.75c0 0.398-0.144 0.736-0.431 1.014-0.278 0.278-0.616 0.417-1.014 0.417zM7.125 26.903c-0.398 0-0.736-0.139-1.014-0.417-0.269-0.278-0.403-0.616-0.403-1.014v-17.667c0-0.407 0.134-0.75 0.403-1.028 0.278-0.278 0.616-0.417 1.014-0.417 0.407 0 0.75 0.139 1.028 0.417s0.417 0.62 0.417 1.028v17.667c0 0.398-0.139 0.736-0.417 1.014s-0.62 0.417-1.028 0.417zM12.097 31.958c-0.398 0-0.736-0.139-1.014-0.417-0.269-0.278-0.403-0.616-0.403-1.014v-27.778c0-0.398 0.134-0.736 0.403-1.014 0.278-0.278 0.616-0.417 1.014-0.417 0.407 0 0.75 0.139 1.028 0.417s0.417 0.616 0.417 1.014v27.778c0 0.398-0.139 0.736-0.417 1.014s-0.62 0.417-1.028 0.417zM17.069 24.917c-0.398 0-0.736-0.139-1.014-0.417-0.268-0.278-0.403-0.616-0.403-1.014v-13.694c0-0.398 0.134-0.736 0.403-1.014 0.278-0.287 0.616-0.431 1.014-0.431s0.736 0.144 1.014 0.431c0.287 0.278 0.431 0.616 0.431 1.014v13.694c0 0.398-0.144 0.736-0.431 1.014-0.278 0.278-0.616 0.417-1.014 0.417zM22.055 28.93c-0.407 0-0.75-0.139-1.028-0.417-0.268-0.278-0.403-0.616-0.403-1.014v-21.722c0-0.398 0.134-0.736 0.403-1.014 0.278-0.278 0.62-0.417 1.028-0.417 0.398 0 0.736 0.139 1.014 0.417s0.417 0.616 0.417 1.014v21.722c0 0.398-0.139 0.736-0.417 1.014s-0.616 0.417-1.014 0.417zM27.014 22.347c-0.398 0-0.736-0.139-1.014-0.417-0.268-0.278-0.403-0.611-0.403-1v-8.583c0-0.389 0.134-0.722 0.403-1 0.278-0.287 0.616-0.431 1.014-0.431 0.407 0 0.75 0.144 1.028 0.431 0.278 0.278 0.417 0.611 0.417 1v8.583c0 0.389-0.139 0.722-0.417 1s-0.62 0.417-1.028 0.417z"></path>
</symbol>
</defs>
</svg>
